<svg width="24" height="15" viewBox="0 0 24 15" fill="none" xmlns="http://www.w3.org/2000/svg">
<path d="M0.20459 6.34784L0.429582 6.83873L0.552306 13.4453L1.39091 14.018H6.11576L7.05664 13.3226L8.12024 14.018L12.5792 13.793L13.5405 13.0976L14.0928 13.793H16.5472L17.0586 13.0976L17.8767 14.018C18.7972 14.0794 21.0225 14.1203 22.5607 13.793C24.0988 13.4658 23.9106 10.9704 23.6243 9.76364L23.1538 8.84321L23.4197 8.53641V6.6751C24.1356 5.93876 23.0993 5.17283 23.1538 5.10016C24.1356 3.79111 23.2561 1.90935 22.7448 1.47982L21.8448 1.23438H19.4517L19.0017 1.47982L18.3881 1.23438H15.5654L15.1564 1.47982L14.7473 1.23438H13.5405L13.2133 1.47982L12.8451 1.23438H5.11352L4.54081 1.66391L4.02946 1.23438H2.24998L1.73863 1.66391L0.20459 6.34784Z" fill="#005F96"/>
<path d="M3.78687 0.989258C4.13981 0.989273 4.38441 1.14514 4.5398 1.30859C4.69914 1.1372 4.95325 0.989258 5.33375 0.989258H12.6941C12.8072 0.992389 12.9284 1.01898 13.0388 1.06348C13.0868 1.0828 13.1359 1.10661 13.1834 1.13574C13.2919 1.06651 13.4583 0.98896 13.6629 0.991211C13.9054 0.993919 14.1849 0.991212 14.697 0.991211C14.697 0.991211 14.7349 0.992447 14.7693 0.99707C14.8065 1.0021 14.8568 1.01153 14.9138 1.03027C14.9755 1.05055 15.0461 1.08263 15.1179 1.12988C15.1683 1.09548 15.2177 1.06794 15.2683 1.04785C15.372 1.00679 15.4696 0.999566 15.5203 0.993164L15.5349 0.991211H15.907C16.1236 0.990955 16.4171 0.990575 16.7254 0.990234C17.3423 0.989553 18.0193 0.989258 18.2546 0.989258C18.5286 0.98933 18.7389 1.05212 18.8845 1.12012C18.9061 1.1302 18.9264 1.14036 18.9451 1.15039C18.9556 1.1439 18.9669 1.13737 18.9783 1.13086C19.0996 1.06173 19.2784 0.991211 19.5017 0.991211H21.6951L21.7 0.992188C22.2799 1.01805 22.9121 1.25457 23.3416 1.81934C23.7715 2.38489 23.9674 3.23776 23.7625 4.43164L23.7615 4.43555L23.7605 4.44043C23.7239 4.61453 23.6575 4.76675 23.5916 4.89648C23.5588 4.96087 23.5243 5.02204 23.4939 5.07715C23.4764 5.10886 23.461 5.13886 23.4461 5.16699C23.4535 5.17947 23.4634 5.19559 23.4763 5.21484C23.5299 5.29471 23.6368 5.43608 23.7166 5.58105C23.7999 5.73251 23.877 5.92493 23.8728 6.14453C23.8693 6.3293 23.8086 6.51376 23.6795 6.69141C23.6875 6.72746 23.6926 6.7632 23.6961 6.7959C23.7052 6.88273 23.7048 6.97408 23.7048 7.03418C23.7049 7.17684 23.712 7.43155 23.7156 7.68457C23.7173 7.80857 23.7179 7.93075 23.7166 8.0332C23.7153 8.12871 23.7126 8.22677 23.7019 8.29004C23.6553 8.56513 23.5348 8.76539 23.4246 8.89648H23.4236C23.4522 8.9288 23.4831 8.96511 23.5144 9.00488C23.6629 9.19355 23.8366 9.47268 23.9207 9.82227C23.9842 10.0868 23.9988 10.4582 23.9998 10.8213C24.0003 11.0066 23.997 11.1968 23.9939 11.3779C23.9908 11.5599 23.9871 11.7322 23.9871 11.8867C23.9871 12.8123 23.6908 13.4266 23.1795 13.7959C22.6846 14.1531 22.0335 14.2471 21.3972 14.2471H18.3152C17.745 14.2471 17.3783 13.9577 17.1629 13.6777C17.1418 13.6504 17.1216 13.6227 17.1033 13.5957C17.0938 13.6099 17.0841 13.6244 17.074 13.6387C16.9073 13.8747 16.6119 14.1855 16.1853 14.1855H14.6375C14.0692 14.1854 13.7079 13.8095 13.5037 13.4883C13.4673 13.4311 13.4347 13.3743 13.406 13.3193C13.351 13.3885 13.2858 13.4606 13.2107 13.5332C12.8676 13.8648 12.3136 14.1855 11.4724 14.1855H8.53102C7.9902 14.1855 7.57526 13.9819 7.29859 13.7813C7.20761 13.7153 7.13118 13.649 7.0691 13.5898C6.99412 13.6604 6.89715 13.7413 6.77711 13.8213C6.44752 14.041 5.94731 14.2538 5.25562 14.2539H1.66187C0.763129 14.2539 0.240151 13.4583 0.24 12.7148V6.91504C-0.110632 6.49544 0.0125988 6.02477 0.0603123 5.84668C0.0880953 5.74346 0.344802 4.96523 0.622812 4.11621C0.904161 3.257 1.21224 2.31126 1.34937 1.85742C1.46825 1.46401 1.86178 0.989396 2.49488 0.989258H3.78687ZM2.49488 1.47949C2.13695 1.47963 1.89422 1.75055 1.8191 1.99902C1.67996 2.4595 1.36919 3.41177 1.08863 4.26855C0.805445 5.13338 0.55712 5.88761 0.533945 5.97363C0.485133 6.15582 0.429132 6.41667 0.657969 6.64551L0.730234 6.71777V12.7148C0.730381 13.2707 1.11082 13.7627 1.66187 13.7627H5.25562C5.84007 13.7626 6.24678 13.5849 6.50465 13.4131C6.63451 13.3265 6.72818 13.2401 6.78785 13.1777C6.81739 13.1469 6.8383 13.1217 6.85133 13.1055C6.85784 13.0973 6.86258 13.0912 6.865 13.0879C6.86617 13.0863 6.86676 13.0852 6.86695 13.085L7.0652 12.7969L7.26832 13.082L7.27027 13.085C7.27272 13.0882 7.27688 13.094 7.28297 13.1016C7.29537 13.1169 7.31569 13.1402 7.34254 13.1689C7.39657 13.2267 7.47849 13.3053 7.58668 13.3838C7.80297 13.5407 8.11934 13.6943 8.53102 13.6943H11.4724C12.1746 13.6943 12.6096 13.4322 12.8699 13.1807C13.0019 13.053 13.0912 12.9254 13.1472 12.8311C13.1752 12.784 13.1949 12.7451 13.2068 12.7197C13.2127 12.7072 13.2172 12.6979 13.2195 12.6924C13.2206 12.6897 13.2212 12.6873 13.2214 12.6865L13.4949 11.9521L13.6882 12.7129L13.6892 12.7139C13.6896 12.7151 13.6903 12.7174 13.6912 12.7207C13.693 12.7273 13.6957 12.7382 13.7 12.752C13.7084 12.7794 13.7215 12.8196 13.74 12.8682C13.7777 12.9671 13.8364 13.0977 13.9177 13.2256C14.0843 13.4874 14.3158 13.6942 14.6375 13.6943H16.1853C16.3594 13.6943 16.5265 13.5624 16.6726 13.3555C16.7406 13.2592 16.7939 13.1617 16.8298 13.0869C16.8476 13.0499 16.8613 13.0187 16.8699 12.998C16.874 12.9881 16.8768 12.9804 16.8787 12.9756C16.8796 12.9731 16.8803 12.9706 16.8806 12.9697L17.1472 12.2432L17.3484 12.9902C17.3486 12.991 17.3488 12.9924 17.3494 12.9941C17.3507 12.9985 17.3528 13.0065 17.3562 13.0166C17.3631 13.0369 17.3742 13.0673 17.3904 13.1045C17.4232 13.1799 17.4758 13.2794 17.5515 13.3779C17.7005 13.5715 17.9359 13.7559 18.3152 13.7559H21.3972C22.0027 13.7559 22.5242 13.6625 22.8914 13.3975C23.2419 13.1444 23.4968 12.7007 23.4968 11.8867C23.4968 11.727 23.4996 11.5494 23.5027 11.3691C23.5058 11.1879 23.509 11.0028 23.5086 10.8232C23.5076 10.4565 23.4916 10.1381 23.4431 9.93652C23.3807 9.67725 23.2493 9.46188 23.1287 9.30859C23.0689 9.2326 23.0132 9.17383 22.9734 9.13477C22.9536 9.1153 22.9377 9.10088 22.9275 9.0918C22.9224 9.0873 22.9189 9.08382 22.9168 9.08203L22.9148 9.08105L22.6482 8.86328L22.9402 8.68262L22.9421 8.68164C22.9464 8.67866 22.9543 8.67251 22.9646 8.66406C22.9853 8.647 23.0158 8.61912 23.0486 8.58008C23.1138 8.50254 23.1882 8.38114 23.2175 8.20801C23.2208 8.18833 23.225 8.12917 23.2263 8.02734C23.2276 7.93163 23.2261 7.81433 23.2244 7.69141C23.221 7.45058 23.2136 7.18037 23.2136 7.03418C23.2136 6.9696 23.2138 6.90438 23.2078 6.84766C23.2048 6.81977 23.2014 6.80006 23.198 6.78809H23.197L23.075 6.63477L23.2185 6.47949C23.3465 6.3411 23.3798 6.22696 23.3816 6.13574C23.3835 6.03692 23.3489 5.9318 23.2859 5.81738C23.2195 5.69685 23.1454 5.60353 23.0681 5.48828C23.0344 5.43806 22.995 5.37526 22.9695 5.31055C22.9455 5.24965 22.9133 5.13351 22.9724 5.01367C23.0014 4.95494 23.0338 4.8961 23.0642 4.84082C23.0956 4.78392 23.1257 4.72965 23.1541 4.67383C23.21 4.56382 23.2547 4.45596 23.2791 4.34277C23.4676 3.23817 23.2725 2.5392 22.9509 2.11621C22.6291 1.69301 22.149 1.50424 21.6824 1.48242H19.5017C19.3834 1.48242 19.2881 1.51966 19.2214 1.55762C19.1882 1.57657 19.163 1.59554 19.1472 1.6084C19.1395 1.61472 19.1343 1.6196 19.1316 1.62207L19.1306 1.62305L18.9627 1.79688L18.7888 1.63281L18.7859 1.62988C18.7828 1.62735 18.7768 1.62347 18.7693 1.61816C18.751 1.60532 18.72 1.58575 18.6765 1.56543C18.5899 1.525 18.4504 1.47956 18.2546 1.47949C18.0196 1.47949 17.3435 1.48076 16.7263 1.48145C16.4178 1.48179 16.1237 1.48217 15.907 1.48242H15.5662C15.5004 1.49062 15.4796 1.49318 15.45 1.50488C15.4223 1.51585 15.3723 1.54184 15.2888 1.625L15.1023 1.81152L14.9295 1.61133C14.8718 1.54473 14.8085 1.51286 14.7605 1.49707C14.7361 1.48906 14.7161 1.48506 14.7039 1.4834C14.6985 1.48268 14.6948 1.48254 14.6931 1.48242C14.1905 1.48244 13.9032 1.48515 13.658 1.48242C13.5807 1.48156 13.5074 1.51123 13.447 1.5498C13.4179 1.5684 13.3948 1.58708 13.3796 1.60059C13.3723 1.60712 13.3669 1.61235 13.364 1.61523C13.3628 1.61647 13.3623 1.61789 13.3621 1.61816L13.1736 1.82617L12.9929 1.6084C12.9688 1.57941 12.9219 1.54543 12.8552 1.51855C12.7978 1.49543 12.7387 1.4832 12.6912 1.48047L12.6716 1.47949H5.33375C5.07906 1.47949 4.95079 1.57963 4.8816 1.66309C4.8441 1.70838 4.81974 1.75407 4.80543 1.78809C4.79854 1.80449 4.79414 1.81742 4.79176 1.8252C4.79083 1.82826 4.79011 1.8309 4.7898 1.83203L4.59937 2.71094L4.31812 1.85547C4.31759 1.85402 4.31602 1.85112 4.31422 1.84668C4.31048 1.83749 4.30415 1.8223 4.29469 1.80371C4.27554 1.76613 4.24552 1.71618 4.20289 1.66699C4.12002 1.57148 3.99197 1.47951 3.78687 1.47949H2.49488Z" fill="url(#paint0_linear_49_161)"/>
<path d="M3.60693 1.94434C3.67819 1.94442 3.74166 1.99065 3.76318 2.05859L4.99756 5.95703C5.03094 6.06241 4.95275 6.16968 4.84229 6.16992H4.19385C4.12246 6.16992 4.05909 6.12374 4.0376 6.05566L3.87354 5.53516C3.85204 5.46707 3.78868 5.4209 3.71729 5.4209H2.50732C2.43088 5.42104 2.36488 5.47421 2.34815 5.54883L2.23682 6.04199C2.22007 6.11669 2.15419 6.1699 2.07764 6.16992H1.36768C1.25709 6.16992 1.17814 6.06249 1.21143 5.95703L2.4419 2.05859C2.46338 1.99051 2.52676 1.94434 2.59815 1.94434H3.60693ZM2.95068 3.56445C2.94835 3.56985 2.94474 3.57521 2.94287 3.58105L2.72412 4.2666C2.71937 4.2816 2.71773 4.29675 2.71729 4.31152L2.6626 4.4873H3.54248L3.1001 3.08887L2.95068 3.56445Z" fill="url(#paint1_linear_49_161)"/>
<mask id="path-4-inside-1_49_161" fill="white">
<path d="M3.60693 1.94434C3.67819 1.94442 3.74166 1.99065 3.76318 2.05859L4.99756 5.95703C5.03094 6.06241 4.95275 6.16968 4.84229 6.16992H4.19385C4.12246 6.16992 4.05909 6.12374 4.0376 6.05566L3.87354 5.53516C3.85204 5.46707 3.78868 5.4209 3.71729 5.4209H2.50732C2.43088 5.42104 2.36488 5.47421 2.34815 5.54883L2.23682 6.04199C2.22007 6.11669 2.15419 6.1699 2.07764 6.16992H1.36768C1.25709 6.16992 1.17814 6.06249 1.21143 5.95703L2.4419 2.05859C2.46338 1.99051 2.52676 1.94434 2.59815 1.94434H3.60693Z"/>
</mask>
<path d="M3.60693 1.94434L3.60712 1.78071H3.60693V1.94434ZM3.76318 2.05859L3.91918 2.0092L3.91917 2.00917L3.76318 2.05859ZM4.99756 5.95703L4.84156 6.00643L4.84157 6.00645L4.99756 5.95703ZM4.84229 6.16992L4.84229 6.33355L4.84264 6.33355L4.84229 6.16992ZM4.19385 6.16992L4.19384 6.33355H4.19385V6.16992ZM4.0376 6.05566L3.88154 6.10485L3.88156 6.10492L4.0376 6.05566ZM3.87354 5.53516L4.0296 5.48597L4.02958 5.4859L3.87354 5.53516ZM2.50732 5.4209L2.50732 5.25727L2.50702 5.25727L2.50732 5.4209ZM2.34815 5.54883L2.50776 5.58486L2.50781 5.58463L2.34815 5.54883ZM2.23682 6.04199L2.0772 6.00596L2.07715 6.00619L2.23682 6.04199ZM2.07764 6.16992L2.07764 6.33355L2.07769 6.33355L2.07764 6.16992ZM1.21143 5.95703L1.36747 6.00629L1.36747 6.00628L1.21143 5.95703ZM2.4419 2.05859L2.28585 2.00934L2.28585 2.00934L2.4419 2.05859ZM2.59815 1.94434L2.59815 1.78071L2.59813 1.78071L2.59815 1.94434ZM3.60693 1.94434L3.60675 2.10797L3.60719 2.10801L3.76318 2.05859L3.91917 2.00917C3.87599 1.87286 3.74918 1.78087 3.60712 1.78071L3.60693 1.94434ZM3.76318 2.05859L3.60719 2.10799L4.84156 6.00643L4.99756 5.95703L5.15356 5.90764L3.91918 2.0092L3.76318 2.05859ZM4.99756 5.95703L4.84157 6.00645L4.84193 6.00629L4.84229 6.16992L4.84264 6.33355C5.06394 6.33308 5.22021 6.11804 5.15355 5.90761L4.99756 5.95703ZM4.84229 6.16992V6.00629H4.19385V6.16992V6.33355H4.84229V6.16992ZM4.19385 6.16992L4.19386 6.00629L4.19364 6.0064L4.0376 6.05566L3.88156 6.10492C3.92467 6.2415 4.0515 6.33355 4.19384 6.33355L4.19385 6.16992ZM4.0376 6.05566L4.19366 6.00647L4.0296 5.48597L3.87354 5.53516L3.71747 5.58435L3.88154 6.10485L4.0376 6.05566ZM3.87354 5.53516L4.02958 5.4859C3.98646 5.34932 3.85965 5.25727 3.71729 5.25727V5.4209V5.58453L3.7175 5.58442L3.87354 5.53516ZM3.71729 5.4209V5.25727H2.50732V5.4209V5.58453H3.71729V5.4209ZM2.50732 5.4209L2.50702 5.25727C2.35376 5.25756 2.22186 5.36414 2.18848 5.51303L2.34815 5.54883L2.50781 5.58463L2.50763 5.58453L2.50732 5.4209ZM2.34815 5.54883L2.18853 5.5128L2.0772 6.00596L2.23682 6.04199L2.39643 6.07802L2.50776 5.58486L2.34815 5.54883ZM2.23682 6.04199L2.07715 6.00619L2.07758 6.00629L2.07764 6.16992L2.07769 6.33355C2.23147 6.3335 2.36313 6.22654 2.39648 6.07779L2.23682 6.04199ZM2.07764 6.16992V6.00629H1.36768V6.16992V6.33355H2.07764V6.16992ZM1.36768 6.16992V6.00629L1.36747 6.00629L1.21143 5.95703L1.05538 5.90778C0.988715 6.11899 1.14681 6.33355 1.36768 6.33355V6.16992ZM1.21143 5.95703L1.36747 6.00628L2.59794 2.10785L2.4419 2.05859L2.28585 2.00934L1.05538 5.90778L1.21143 5.95703ZM2.4419 2.05859L2.59794 2.10785L2.59816 2.10797L2.59815 1.94434L2.59813 1.78071C2.45581 1.78072 2.32897 1.87275 2.28585 2.00934L2.4419 2.05859ZM2.59815 1.94434V2.10797H3.60693V1.94434V1.78071H2.59815V1.94434Z" fill="url(#paint2_linear_49_161)" mask="url(#path-4-inside-1_49_161)"/>
<path d="M7.76624 2.02734C7.85662 2.02734 7.92988 2.1006 7.92988 2.19097V2.80459C7.92988 2.89496 7.85662 2.96822 7.76624 2.96822H6.38722C6.29685 2.96822 6.22359 3.04148 6.22359 3.13185V3.45404C6.22359 3.54441 6.29685 3.61767 6.38722 3.61767H7.45965C7.55002 3.61767 7.62328 3.69093 7.62328 3.7813V4.39492C7.62328 4.48529 7.55002 4.55855 7.45965 4.55855H6.38722C6.29685 4.55855 6.22359 4.63181 6.22359 4.72218V5.06586C6.22359 5.15623 6.29685 5.22949 6.38722 5.22949H7.95754C8.04791 5.22949 8.12117 5.30275 8.12117 5.39312V6.00674C8.12117 6.09711 8.04791 6.17037 7.95754 6.17037H5.44635C5.35597 6.17037 5.28271 6.09711 5.28271 6.00674V2.19098C5.28271 2.1006 5.35597 2.02734 5.44635 2.02734H7.76624Z" fill="url(#paint3_linear_49_161)"/>
<path d="M7.84814 2.10938V2.88672H6.14209V3.69922H7.5415V4.47656H6.14209V5.31152H8.03955V6.08887H5.36475V2.10938H7.84814Z" stroke="url(#paint4_linear_49_161)" stroke-width="0.163631"/>
<path d="M18.4259 2.00488C18.5163 2.00488 18.5895 2.07814 18.5895 2.16851V2.78213C18.5895 2.8725 18.5163 2.94576 18.4259 2.94576H16.7453C16.655 2.94576 16.5817 3.01902 16.5817 3.10939V3.43158C16.5817 3.52195 16.655 3.59521 16.7453 3.59521H18.0939C18.1843 3.59521 18.2575 3.66847 18.2575 3.75884V4.37246C18.2575 4.46283 18.1843 4.53609 18.0939 4.53609H16.7453C16.655 4.53609 16.5817 4.60935 16.5817 4.69972V5.0434C16.5817 5.13377 16.655 5.20703 16.7453 5.20703H18.5344C18.6248 5.20703 18.6981 5.28029 18.6981 5.37066V5.98428C18.6981 6.07465 18.6248 6.14791 18.5344 6.14791H15.696C15.6056 6.14791 15.5323 6.07465 15.5323 5.98428V2.16851C15.5323 2.07814 15.6056 2.00488 15.696 2.00488H18.4259Z" fill="url(#paint5_linear_49_161)"/>
<path d="M18.5079 2.08691V2.86426H16.5001V3.67676H18.1759V4.4541H16.5001V5.28906H18.6163V6.06641H15.6144V2.08691H18.5079Z" stroke="url(#paint6_linear_49_161)" stroke-width="0.163631"/>
<path d="M11.0817 2.02246C11.1721 2.02246 11.2454 2.09572 11.2454 2.18609V2.79971C11.2454 2.89008 11.1721 2.96334 11.0817 2.96334H10.374C10.2836 2.96334 10.2103 3.0366 10.2103 3.12697V5.98536C10.2103 6.07573 10.1371 6.14899 10.0467 6.14899H9.43308C9.34271 6.14899 9.26945 6.07573 9.26945 5.98536V3.12697C9.26945 3.0366 9.19619 2.96334 9.10582 2.96334H8.466C8.37563 2.96334 8.30237 2.89008 8.30237 2.79971V2.18609C8.30237 2.09572 8.37563 2.02246 8.466 2.02246H11.0817Z" fill="url(#paint7_linear_49_161)"/>
<path d="M11.1637 2.10449V2.88184H10.1285V6.06738H9.3512V2.88184H8.3844V2.10449H11.1637Z" stroke="url(#paint8_linear_49_161)" stroke-width="0.163631"/>
<path d="M12.3786 2.03027C12.4689 2.03027 12.5422 2.10353 12.5422 2.1939V3.43548C12.5422 3.52585 12.6155 3.59911 12.7058 3.59911H13.6593C13.7497 3.59911 13.823 3.52585 13.823 3.43548V2.1939C13.823 2.10353 13.8962 2.03027 13.9866 2.03027H14.6002C14.6906 2.03027 14.7638 2.10353 14.7638 2.1939V5.95841C14.7638 6.04879 14.6906 6.12205 14.6002 6.12205H13.9866C13.8962 6.12205 13.823 6.04879 13.823 5.95841V4.70362C13.823 4.61325 13.7497 4.53999 13.6593 4.53999H12.7058C12.6155 4.53999 12.5422 4.61325 12.5422 4.70362V5.95841C12.5422 6.04879 12.4689 6.12205 12.3786 6.12205H11.7649C11.6746 6.12205 11.6013 6.04879 11.6013 5.95841V2.1939C11.6013 2.10353 11.6746 2.03027 11.7649 2.03027H12.3786Z" fill="url(#paint9_linear_49_161)"/>
<path d="M12.4607 2.1123V3.68066H13.905V2.1123H14.6824V6.04004H13.905V4.45801H12.4607V6.04004H11.6833V2.1123H12.4607Z" stroke="url(#paint10_linear_49_161)" stroke-width="0.163631"/>
<path d="M18.1934 8.53882C18.1934 7.65578 18.5639 6.81934 19.5728 6.81934C20.2688 6.81934 21.2826 6.81934 22.3736 6.81934C22.4647 6.81934 22.5383 6.89373 22.5373 6.98481L22.5268 7.91377C22.5258 8.00337 22.453 8.0755 22.3633 8.07554C21.5756 8.07591 20.5762 8.07545 19.9135 8.07545C19.7128 8.07545 19.5728 8.32237 19.5728 8.53882C19.5728 8.62666 19.5728 9.01734 20.0917 9.07848L21.5619 9.28103C22.0734 9.34537 22.8451 9.77393 22.8451 10.6834V11.4269C22.8451 12.2046 22.2728 12.8532 21.3377 12.8532H18.357C18.2666 12.8532 18.1934 12.7799 18.1934 12.6896V11.7078C18.1934 11.6174 18.2658 11.5441 18.3562 11.5441C18.8814 11.5441 20.5242 11.5441 20.9968 11.5441C21.5619 11.5441 21.5701 11.3139 21.5863 11.0205C21.6077 10.6323 21.3377 10.5267 20.8251 10.4474C20.3124 10.3682 19.2452 10.4233 18.736 9.99402C18.3889 9.70144 18.1934 9.232 18.1934 8.53882Z" fill="url(#paint11_linear_49_161)"/>
<path d="M18.1934 8.53882C18.1934 7.65578 18.5639 6.81934 19.5728 6.81934C20.2688 6.81934 21.2826 6.81934 22.3736 6.81934C22.4647 6.81934 22.5383 6.89373 22.5373 6.98481L22.5268 7.91377C22.5258 8.00337 22.453 8.0755 22.3633 8.07554C21.5756 8.07591 20.5762 8.07545 19.9135 8.07545C19.7128 8.07545 19.5728 8.32237 19.5728 8.53882C19.5728 8.62666 19.5728 9.01734 20.0917 9.07848L21.5619 9.28103C22.0734 9.34537 22.8451 9.77393 22.8451 10.6834V11.4269C22.8451 12.2046 22.2728 12.8532 21.3377 12.8532H18.357C18.2666 12.8532 18.1934 12.7799 18.1934 12.6896V11.7078C18.1934 11.6174 18.2658 11.5441 18.3562 11.5441C18.8814 11.5441 20.5242 11.5441 20.9968 11.5441C21.5619 11.5441 21.5701 11.3139 21.5863 11.0205C21.6077 10.6323 21.3377 10.5267 20.8251 10.4474C20.3124 10.3682 19.2452 10.4233 18.736 9.99402C18.3889 9.70144 18.1934 9.232 18.1934 8.53882Z" fill="url(#paint12_linear_49_161)"/>
<path d="M19.5732 6.96289H22.3945L22.3838 7.93262C21.593 7.933 20.5817 7.93262 19.9131 7.93262C19.7492 7.93278 19.6257 8.03352 19.5498 8.14551C19.4734 8.25845 19.4297 8.40281 19.4297 8.53906C19.4297 8.58597 19.4287 8.73814 19.5127 8.88867C19.6019 9.04841 19.7737 9.18383 20.0723 9.21973V9.2207L21.542 9.42285H21.5439C21.7734 9.45171 22.0664 9.56448 22.2998 9.77246C22.5297 9.9773 22.7021 10.2742 22.7021 10.6836V11.4268C22.7021 12.125 22.1941 12.7099 21.3379 12.71H18.3369V11.6875H20.9971C21.2903 11.6875 21.4922 11.6291 21.6094 11.4814C21.6661 11.4099 21.6927 11.3288 21.707 11.2529C21.721 11.1789 21.7256 11.0988 21.7295 11.0283C21.7357 10.9149 21.7211 10.811 21.6787 10.7188C21.6356 10.6252 21.5677 10.5529 21.4844 10.498C21.3262 10.3941 21.1007 10.3449 20.8467 10.3057C20.7114 10.2848 20.542 10.2733 20.3643 10.2607C20.1836 10.248 19.9896 10.2343 19.7969 10.21C19.4045 10.1604 19.0481 10.0702 18.8281 9.88477C18.5236 9.62808 18.337 9.20548 18.3369 8.53906C18.3369 8.11424 18.4263 7.716 18.623 7.42871C18.8146 7.14901 19.1152 6.96289 19.5732 6.96289Z" stroke="url(#paint13_linear_49_161)" stroke-width="0.286354" stroke-linejoin="round"/>
<path d="M17.5433 6.81934C17.6337 6.81934 17.7069 6.8926 17.7069 6.98297V7.96475C17.7069 8.05512 17.6337 8.12838 17.5433 8.12838H16.2649C16.1745 8.12838 16.1013 8.20164 16.1013 8.29201V12.6594C16.1013 12.7497 16.028 12.823 15.9376 12.823H14.9559C14.8655 12.823 14.7922 12.7497 14.7922 12.6594V8.29201C14.7922 8.20164 14.719 8.12838 14.6286 8.12838H13.2491C13.1587 8.12838 13.0854 8.05512 13.0854 7.96475V6.98297C13.0854 6.8926 13.1587 6.81934 13.2491 6.81934H17.5433Z" fill="url(#paint14_linear_49_161)"/>
<path d="M17.5433 6.81934C17.6337 6.81934 17.7069 6.8926 17.7069 6.98297V7.96475C17.7069 8.05512 17.6337 8.12838 17.5433 8.12838H16.2649C16.1745 8.12838 16.1013 8.20164 16.1013 8.29201V12.6594C16.1013 12.7497 16.028 12.823 15.9376 12.823H14.9559C14.8655 12.823 14.7922 12.7497 14.7922 12.6594V8.29201C14.7922 8.20164 14.719 8.12838 14.6286 8.12838H13.2491C13.1587 8.12838 13.0854 8.05512 13.0854 7.96475V6.98297C13.0854 6.8926 13.1587 6.81934 13.2491 6.81934H17.5433Z" fill="url(#paint15_linear_49_161)"/>
<path d="M17.564 6.96289V7.98535H16.1011C16.0222 7.98546 15.9587 8.04913 15.9585 8.12793V12.6797H14.9351V8.12793C14.9348 8.04915 14.8713 7.98549 14.7925 7.98535H13.229V6.96289H17.564Z" stroke="url(#paint16_linear_49_161)" stroke-width="0.286354" stroke-linejoin="round"/>
<path d="M11.3709 8.68035C11.3709 8.17536 10.9269 8.11052 10.7887 8.11052H9.18959C8.89416 8.11052 8.66447 8.3149 8.66447 8.68035V10.9149C8.67038 11.5198 9.11739 11.6699 9.38245 11.6699H10.7063C10.8428 11.6699 11.3709 11.5592 11.3709 11.0407V8.68035ZM12.68 11.0407C12.68 12.1408 12.2234 12.8692 10.977 12.8692C10.5087 12.8692 9.8811 12.8692 8.91655 12.8692C7.88772 12.8692 7.33948 12.0634 7.33948 10.9429L7.33948 8.55763C7.33948 7.77439 7.70663 6.83203 8.89416 6.83203C9.76714 6.83203 10.8711 6.83203 11.1612 6.83203C12.1303 6.83203 12.68 7.78711 12.68 8.55763V11.0407Z" fill="url(#paint17_linear_49_161)"/>
<path d="M11.3709 8.68035C11.3709 8.17536 10.9269 8.11052 10.7887 8.11052H9.18959C8.89416 8.11052 8.66447 8.3149 8.66447 8.68035V10.9149C8.67038 11.5198 9.11739 11.6699 9.38245 11.6699H10.7063C10.8428 11.6699 11.3709 11.5592 11.3709 11.0407V8.68035ZM12.68 11.0407C12.68 12.1408 12.2234 12.8692 10.977 12.8692C10.5087 12.8692 9.8811 12.8692 8.91655 12.8692C7.88772 12.8692 7.33948 12.0634 7.33948 10.9429L7.33948 8.55763C7.33948 7.77439 7.70663 6.83203 8.89416 6.83203C9.76714 6.83203 10.8711 6.83203 11.1612 6.83203C12.1303 6.83203 12.68 7.78711 12.68 8.55763V11.0407Z" fill="url(#paint18_linear_49_161)"/>
<path d="M8.89417 6.97559H11.1608C11.5929 6.97559 11.9338 7.18649 12.1705 7.49316C12.4093 7.80261 12.5367 8.20328 12.5367 8.55762V11.041C12.5367 11.5747 12.4251 11.9925 12.1862 12.2754C11.9512 12.5534 11.5716 12.7255 10.9772 12.7256H8.91663C8.44387 12.7256 8.09213 12.543 7.8551 12.2383C7.61471 11.9292 7.4831 11.4821 7.48303 10.9434V8.55762C7.48303 8.18493 7.57058 7.78581 7.78772 7.48438C7.9998 7.19014 8.34443 6.97559 8.89417 6.97559ZM9.19006 7.96777C9.00875 7.96777 8.8381 8.03041 8.7135 8.1582C8.58873 8.28617 8.52112 8.46732 8.52112 8.68066V10.916C8.52446 11.2581 8.65544 11.4895 8.8385 11.6318C9.0155 11.7694 9.22705 11.8135 9.38245 11.8135H10.7067C10.7987 11.8134 10.9917 11.7798 11.1656 11.6719C11.3476 11.559 11.5142 11.3595 11.5143 11.041V8.68066C11.5143 8.37682 11.3756 8.18848 11.2067 8.08398C11.0479 7.98592 10.8731 7.96777 10.7887 7.96777H9.19006Z" stroke="url(#paint19_linear_49_161)" stroke-width="0.286354" stroke-linejoin="round"/>
<path d="M4.85866 10.3426H2.83315V11.6114H4.8383C5.52563 11.5432 5.461 10.3426 4.85866 10.3426ZM5.10454 8.54901C5.14032 8.0929 4.67487 8.00974 4.46954 8.00974H2.84254V9.15437H4.58401C4.96555 9.15437 5.07565 8.91726 5.10454 8.54901ZM6.40863 8.43994C6.40863 9.23497 6.22278 9.43563 5.72316 9.69363C6.23916 10.0008 6.61183 10.1277 6.61183 11.1549C6.61183 11.8959 6.40863 12.8347 5.09958 12.8347H1.81629C1.45481 12.8347 1.46746 12.5848 1.46746 12.2233V7.47414C1.46746 7.11265 1.45481 6.83105 1.81629 6.83105C2.60311 6.83105 3.82356 6.83105 4.87217 6.83105C5.9525 6.83105 6.40863 7.51826 6.40863 8.43994Z" fill="url(#paint20_linear_49_161)"/>
<path d="M1.81604 6.97461H4.8717C5.37984 6.97461 5.72092 7.13469 5.93713 7.38379C6.15634 7.63638 6.26526 8.00106 6.26526 8.44043C6.26522 8.83084 6.21868 9.04701 6.13049 9.19434C6.04354 9.33948 5.90396 9.43929 5.65784 9.56641C5.61162 9.59027 5.58128 9.63746 5.57971 9.68945C5.5782 9.74137 5.6054 9.78982 5.65002 9.81641C5.92334 9.97909 6.11201 10.0712 6.24866 10.2432C6.37782 10.4058 6.46838 10.6573 6.46838 11.1553C6.46835 11.5177 6.4181 11.9028 6.22717 12.1943C6.04373 12.4744 5.71439 12.6914 5.09924 12.6914H1.81604C1.74089 12.6914 1.70145 12.6778 1.68127 12.666C1.66443 12.656 1.65066 12.6415 1.63928 12.6123C1.62643 12.5792 1.61803 12.5316 1.61389 12.4629C1.60976 12.3942 1.61096 12.3165 1.61096 12.2236V7.47461C1.61096 7.38178 1.60974 7.30144 1.61389 7.22949C1.61805 7.15749 1.62733 7.1048 1.64124 7.06641C1.65419 7.03077 1.66952 7.01234 1.68713 7.00098C1.70658 6.98847 1.74372 6.97464 1.81604 6.97461ZM2.83362 10.1992C2.75454 10.1992 2.69006 10.2637 2.69006 10.3428V11.6113C2.69006 11.6904 2.75454 11.7549 2.83362 11.7549H4.8385C4.84307 11.7549 4.84763 11.7543 4.85217 11.7539C5.07042 11.7322 5.23275 11.6185 5.33557 11.4639C5.4359 11.3129 5.47833 11.1263 5.47522 10.9492C5.47205 10.7723 5.42251 10.5907 5.32288 10.4492C5.22092 10.3045 5.0638 10.1993 4.85901 10.1992H2.83362ZM2.84241 7.86621C2.76339 7.86628 2.69983 7.93073 2.69983 8.00977V9.1543C2.69983 9.23333 2.76339 9.29778 2.84241 9.29785H4.58362C4.80727 9.29785 4.97899 9.2254 5.09143 9.0752C5.19545 8.93599 5.23277 8.75028 5.24768 8.56055C5.25864 8.42078 5.23143 8.29995 5.17346 8.2002C5.1161 8.10151 5.03343 8.03179 4.94788 7.9834C4.78069 7.8889 4.58521 7.86621 4.46936 7.86621H2.84241Z" stroke="url(#paint21_linear_49_161)" stroke-width="0.286354" stroke-linejoin="round"/>
<path d="M21.5932 2.02291C21.6019 2.02315 21.6101 2.02409 21.6187 2.0258C21.8887 2.0798 22.0585 2.18606 22.2931 2.4046C22.5502 2.64411 22.6471 3.03789 22.6386 3.42272C22.6276 3.92615 22.5631 4.33491 22.0254 4.64421C21.9387 4.69412 21.9054 4.80638 21.9602 4.89014L22.6229 5.9029C22.6941 6.01173 22.616 6.15613 22.486 6.15613H21.7158C21.6591 6.15613 21.6065 6.12678 21.5767 6.07855L20.8869 4.9631C20.8571 4.91488 20.8044 4.88553 20.7477 4.88553H20.4149C20.3245 4.88553 20.2513 4.95879 20.2513 5.04916V5.9925C20.2513 6.08287 20.178 6.15613 20.0876 6.15613H19.4495C19.3591 6.15613 19.2859 6.08287 19.2859 5.9925V2.1734C19.2859 2.08303 19.3586 2.00976 19.449 2.00978C19.9912 2.00991 21.1683 2.01115 21.5932 2.02291ZM20.4142 2.96355C20.3241 2.96376 20.2513 3.03693 20.2513 3.12701V3.77924C20.2513 3.86945 20.3243 3.94264 20.4145 3.94287L21.1152 3.94465C21.2926 3.94465 21.4964 3.91208 21.6058 3.75609C21.6462 3.69849 21.6571 3.59108 21.6613 3.39906C21.6613 3.06422 21.4583 2.96411 21.2066 2.96411C20.879 2.96411 20.6952 2.96289 20.4142 2.96355Z" fill="url(#paint22_linear_49_161)"/>
<path d="M19.3679 2.0918C19.8665 2.09184 21.1574 2.09197 21.5974 2.10449C21.851 2.15426 22.0079 2.25136 22.2371 2.46484C22.4696 2.68149 22.5646 3.04676 22.5564 3.4209C22.5504 3.69577 22.5283 3.92794 22.4294 4.12891C22.3322 4.32628 22.1559 4.50322 21.822 4.65625L21.7351 4.69629L21.7878 4.77539L22.6375 6.07422H21.6697L20.9089 4.84277L20.8845 4.80371H20.1697V6.07422H19.3679V2.0918ZM20.2507 2.88184L20.1697 2.88281V4.02441H20.2507L21.115 4.02637C21.2947 4.02637 21.5378 3.99488 21.6726 3.80273C21.7038 3.75814 21.7194 3.70183 21.7283 3.63965C21.7373 3.57634 21.7408 3.49671 21.7429 3.40039V3.39941C21.7429 3.21476 21.6862 3.07873 21.5798 2.99219C21.4768 2.90851 21.3411 2.88186 21.2068 2.88184C20.8208 2.88184 20.6332 2.88014 20.2507 2.88184Z" stroke="url(#paint23_linear_49_161)" stroke-width="0.163631"/>
<defs>
<linearGradient id="paint0_linear_49_161" x1="11.9999" y1="0.989258" x2="11.9999" y2="14.2539" gradientUnits="userSpaceOnUse">
<stop stop-color="#72E6F2"/>
<stop offset="0.961538" stop-color="#00D6EC"/>
</linearGradient>
<linearGradient id="paint1_linear_49_161" x1="3.10454" y1="1.94434" x2="3.10454" y2="6.16992" gradientUnits="userSpaceOnUse">
<stop stop-color="#00FBDE"/>
<stop offset="0.625" stop-color="#00C7E1"/>
</linearGradient>
<linearGradient id="paint2_linear_49_161" x1="2.08233" y1="1.94434" x2="3.1045" y2="4.79952" gradientUnits="userSpaceOnUse">
<stop stop-color="white"/>
<stop offset="1" stop-color="white" stop-opacity="0"/>
</linearGradient>
<linearGradient id="paint3_linear_49_161" x1="6.70194" y1="2.02734" x2="6.70194" y2="6.17037" gradientUnits="userSpaceOnUse">
<stop stop-color="#00FBDE"/>
<stop offset="0.625" stop-color="#00C7E1"/>
</linearGradient>
<linearGradient id="paint4_linear_49_161" x1="5.93871" y1="2.02734" x2="7.15469" y2="4.61388" gradientUnits="userSpaceOnUse">
<stop stop-color="white"/>
<stop offset="1" stop-color="white" stop-opacity="0"/>
</linearGradient>
<linearGradient id="paint5_linear_49_161" x1="17.1152" y1="2.00488" x2="17.1152" y2="6.14791" gradientUnits="userSpaceOnUse">
<stop stop-color="#00FBDE"/>
<stop offset="0.625" stop-color="#00C7E1"/>
</linearGradient>
<linearGradient id="paint6_linear_49_161" x1="16.264" y1="2.00488" x2="17.3944" y2="4.68659" gradientUnits="userSpaceOnUse">
<stop stop-color="white"/>
<stop offset="1" stop-color="white" stop-opacity="0"/>
</linearGradient>
<linearGradient id="paint7_linear_49_161" x1="9.77387" y1="2.02246" x2="9.77387" y2="6.14899" gradientUnits="userSpaceOnUse">
<stop stop-color="#00FBDE"/>
<stop offset="0.625" stop-color="#00C7E1"/>
</linearGradient>
<linearGradient id="paint8_linear_49_161" x1="8.98253" y1="2.02246" x2="10.1625" y2="4.6352" gradientUnits="userSpaceOnUse">
<stop stop-color="white"/>
<stop offset="1" stop-color="white" stop-opacity="0"/>
</linearGradient>
<linearGradient id="paint9_linear_49_161" x1="13.1826" y1="2.03027" x2="13.1826" y2="6.12205" gradientUnits="userSpaceOnUse">
<stop stop-color="#00FBDE"/>
<stop offset="0.625" stop-color="#00C7E1"/>
</linearGradient>
<linearGradient id="paint10_linear_49_161" x1="12.3322" y1="2.03027" x2="13.4397" y2="4.68788" gradientUnits="userSpaceOnUse">
<stop stop-color="white"/>
<stop offset="1" stop-color="white" stop-opacity="0"/>
</linearGradient>
<linearGradient id="paint11_linear_49_161" x1="20.5192" y1="6.81934" x2="20.5192" y2="12.8532" gradientUnits="userSpaceOnUse">
<stop stop-color="#00CBE0"/>
<stop offset="1" stop-color="#44CAFF"/>
</linearGradient>
<linearGradient id="paint12_linear_49_161" x1="20.5192" y1="6.81934" x2="20.5192" y2="12.8532" gradientUnits="userSpaceOnUse">
<stop stop-color="#00CBE0"/>
<stop offset="1" stop-color="#44CAFF"/>
</linearGradient>
<linearGradient id="paint13_linear_49_161" x1="18.5268" y1="5.84868" x2="20.8924" y2="10.5153" gradientUnits="userSpaceOnUse">
<stop stop-color="white"/>
<stop offset="1" stop-color="white" stop-opacity="0"/>
</linearGradient>
<linearGradient id="paint14_linear_49_161" x1="15.3962" y1="6.81934" x2="15.3962" y2="12.823" gradientUnits="userSpaceOnUse">
<stop stop-color="#00CBE0"/>
<stop offset="1" stop-color="#44CAFF"/>
</linearGradient>
<linearGradient id="paint15_linear_49_161" x1="15.3962" y1="6.81934" x2="15.3962" y2="12.823" gradientUnits="userSpaceOnUse">
<stop stop-color="#00CBE0"/>
<stop offset="1" stop-color="#44CAFF"/>
</linearGradient>
<linearGradient id="paint16_linear_49_161" x1="13.4167" y1="5.85354" x2="15.7725" y2="10.494" gradientUnits="userSpaceOnUse">
<stop stop-color="white"/>
<stop offset="1" stop-color="white" stop-opacity="0"/>
</linearGradient>
<linearGradient id="paint17_linear_49_161" x1="10.0097" y1="6.83203" x2="10.0097" y2="12.8692" gradientUnits="userSpaceOnUse">
<stop stop-color="#00CBE0"/>
<stop offset="1" stop-color="#44CAFF"/>
</linearGradient>
<linearGradient id="paint18_linear_49_161" x1="10.0097" y1="6.83203" x2="10.0097" y2="12.8692" gradientUnits="userSpaceOnUse">
<stop stop-color="#00CBE0"/>
<stop offset="1" stop-color="#44CAFF"/>
</linearGradient>
<linearGradient id="paint19_linear_49_161" x1="7.72224" y1="5.86084" x2="9.89167" y2="10.7715" gradientUnits="userSpaceOnUse">
<stop stop-color="white"/>
<stop offset="1" stop-color="white" stop-opacity="0"/>
</linearGradient>
<linearGradient id="paint20_linear_49_161" x1="4.03962" y1="6.83105" x2="4.03962" y2="12.8347" gradientUnits="userSpaceOnUse">
<stop stop-color="#00CBE0"/>
<stop offset="1" stop-color="#44CAFF"/>
</linearGradient>
<linearGradient id="paint21_linear_49_161" x1="1.83612" y1="5.86526" x2="4.03962" y2="10.6967" gradientUnits="userSpaceOnUse">
<stop stop-color="white"/>
<stop offset="1" stop-color="white" stop-opacity="0"/>
</linearGradient>
<linearGradient id="paint22_linear_49_161" x1="21.0372" y1="2.00977" x2="21.0372" y2="6.15613" gradientUnits="userSpaceOnUse">
<stop stop-color="#00FBDE"/>
<stop offset="0.625" stop-color="#00C7E1"/>
</linearGradient>
<linearGradient id="paint23_linear_49_161" x1="20.0954" y1="2.00977" x2="21.1476" y2="4.76934" gradientUnits="userSpaceOnUse">
<stop stop-color="white"/>
<stop offset="1" stop-color="white" stop-opacity="0"/>
</linearGradient>
</defs>
</svg>
