<svg width="276" height="30" viewBox="0 0 276 30" fill="none" xmlns="http://www.w3.org/2000/svg">
<path d="M0.432495 12.306L0.908215 13.3439L1.1677 27.3128L2.94084 28.5237H12.931L14.9203 27.0533L17.1692 28.5237L26.5971 28.048L28.6297 26.5776L29.7974 28.048H34.9871L36.0682 26.5776L37.7981 28.5237C39.7443 28.6534 44.4496 28.7399 47.7018 28.048C50.954 27.356 50.5561 22.0798 49.9506 19.5283L48.9559 17.5821L49.5182 16.9334V12.9979C51.0318 11.441 48.8407 9.82153 48.9559 9.66788C51.0318 6.90005 49.1722 2.9213 48.091 2.01311L46.1881 1.49414H41.1282L40.1767 2.01311L38.8793 1.49414H32.9112L32.0463 2.01311L31.1813 1.49414H28.6297L27.9378 2.01311L27.1593 1.49414H10.8118L9.60092 2.40233L8.51974 1.49414H4.75722L3.67604 2.40233L0.432495 12.306Z" fill="#005F96"/>
<path d="M8.00769 0.976562C8.75381 0.976665 9.27096 1.30677 9.59949 1.65234C9.93633 1.29004 10.473 0.976676 11.2772 0.976562H26.7938L26.8417 0.977539C27.0808 0.984211 27.3359 1.04074 27.5692 1.13477C27.6707 1.17564 27.7744 1.22643 27.8749 1.28809C28.1044 1.14162 28.4567 0.977594 28.8895 0.982422C29.4024 0.988143 29.9932 0.982423 31.076 0.982422C31.076 0.982422 31.1565 0.98429 31.2294 0.994141C31.3081 1.0048 31.4135 1.02578 31.5341 1.06543C31.6644 1.1083 31.8139 1.1745 31.9657 1.27441C32.0723 1.20155 32.1777 1.14503 32.285 1.10254C32.5039 1.01591 32.7082 1.00082 32.8153 0.987305L32.8475 0.982422H33.0848C33.2159 0.982264 33.4046 0.981716 33.6337 0.981445C34.0918 0.980905 34.7129 0.980213 35.3651 0.979492C36.6694 0.978051 38.0986 0.976563 38.5966 0.976562C39.1763 0.976562 39.6214 1.11102 39.9296 1.25488C39.9752 1.27621 40.018 1.29813 40.0575 1.31934C40.0798 1.30552 40.1035 1.29123 40.1278 1.27734C40.3843 1.13121 40.7612 0.982521 41.2333 0.982422H45.8719L45.8827 0.983398C47.109 1.03807 48.4454 1.53829 49.3534 2.73242C50.2627 3.92821 50.6763 5.73134 50.243 8.25586L50.2391 8.27539C50.1616 8.64334 50.0221 8.96406 49.8827 9.23828C49.8133 9.37481 49.741 9.50525 49.6766 9.62207C49.6397 9.6891 49.6048 9.75107 49.5731 9.81055C49.5889 9.83695 49.6102 9.87027 49.6376 9.91113C49.7507 10.0798 49.9764 10.3795 50.1454 10.6865C50.3218 11.007 50.4854 11.4141 50.4764 11.8789C50.4689 12.2695 50.3403 12.6587 50.0673 13.0342C50.0843 13.1105 50.0951 13.1866 50.1024 13.2559C50.1218 13.4391 50.1219 13.6308 50.1219 13.7578C50.1219 14.0593 50.1368 14.5983 50.1444 15.1338C50.1481 15.3964 50.1492 15.6552 50.1464 15.8721C50.1437 16.0744 50.1368 16.2813 50.1141 16.415C50.0155 16.9967 49.7623 17.4191 49.5292 17.6963L49.5272 17.6973C49.5878 17.7656 49.6525 17.8417 49.7186 17.9258C50.0325 18.3247 50.4002 18.9142 50.578 19.6533C50.7125 20.2127 50.7429 20.9986 50.745 21.7666C50.746 22.1584 50.7399 22.5603 50.7333 22.9434C50.7266 23.3285 50.7196 23.6936 50.7196 24.0205C50.7195 25.9776 50.0911 27.275 49.0096 28.0557C47.9634 28.8109 46.5874 29.0098 45.2421 29.0098H38.7255C37.5194 29.0098 36.7435 28.3977 36.288 27.8057C36.2437 27.7481 36.2025 27.6906 36.1639 27.6338C36.1439 27.6637 36.1227 27.6935 36.1014 27.7236C35.7491 28.2226 35.1244 28.8799 34.2225 28.8799H30.9501C29.7483 28.8798 28.9835 28.0855 28.5516 27.4062C28.4746 27.285 28.4055 27.1644 28.3446 27.0479C28.2284 27.1941 28.0921 27.3476 27.9335 27.501C27.2081 28.2021 26.0362 28.8798 24.2577 28.8799H18.038C16.8946 28.8799 16.0174 28.4496 15.4325 28.0254C15.24 27.8858 15.0775 27.7453 14.9462 27.6201C14.7876 27.7693 14.5829 27.9402 14.329 28.1094C13.632 28.5738 12.5747 29.0244 11.1122 29.0244H3.51453C1.614 29.0244 0.50676 27.3416 0.506714 25.7695V13.5059C-0.234298 12.6187 0.0269363 11.6255 0.127808 11.249C0.185373 11.0342 0.727703 9.38634 1.31628 7.58887C1.91124 5.77193 2.5635 3.77192 2.85339 2.8125C3.1049 1.98062 3.93747 0.976576 5.27625 0.976562H8.00769ZM5.27625 2.01465C4.51903 2.01466 4.00536 2.58773 3.84656 3.11328C3.55231 4.08708 2.89674 6.10067 2.30359 7.91211C1.70417 9.74266 1.17876 11.3386 1.13074 11.5176C1.02749 11.9029 0.908037 12.4535 1.39246 12.9375L1.5448 13.0898V25.7695C1.54484 26.945 2.34919 27.9863 3.51453 27.9863H11.1122C12.3486 27.9863 13.2085 27.6086 13.7538 27.2451C14.0283 27.0621 14.2263 26.8808 14.3524 26.749C14.4152 26.6834 14.4596 26.63 14.4872 26.5957C14.5007 26.5789 14.5103 26.5666 14.5155 26.5596C14.5181 26.5561 14.52 26.5533 14.5204 26.5527L14.9384 25.9434L15.369 26.5479C15.3699 26.549 15.3713 26.5506 15.3729 26.5527C15.3782 26.5596 15.3872 26.5717 15.4003 26.5879C15.4266 26.6204 15.4683 26.6705 15.5253 26.7314C15.6395 26.8537 15.8131 27.0186 16.0419 27.1846C16.4992 27.5162 17.1676 27.8418 18.038 27.8418H24.2577C25.7421 27.8417 26.6614 27.2868 27.2118 26.7549C27.4912 26.4848 27.6812 26.2152 27.7997 26.0156C27.8587 25.9162 27.8996 25.8349 27.9247 25.7812C27.9372 25.7545 27.9462 25.7343 27.951 25.7227C27.9532 25.7174 27.9543 25.7137 27.955 25.7119L27.9559 25.7109L28.535 24.1582L28.9432 25.7656L28.9442 25.7686C28.9449 25.7713 28.9463 25.7765 28.9481 25.7832C28.952 25.7971 28.9588 25.8189 28.9677 25.8477C28.9856 25.9058 29.013 25.992 29.0526 26.0957C29.1324 26.3049 29.2557 26.5792 29.4276 26.8496C29.7798 27.4034 30.2696 27.8417 30.9501 27.8418H34.2225C34.5907 27.8418 34.9448 27.5626 35.2538 27.125C35.3976 26.9213 35.509 26.7137 35.5848 26.5557C35.6224 26.4774 35.6507 26.4129 35.6688 26.3691C35.6779 26.3474 35.6843 26.3306 35.6884 26.3203C35.6903 26.3153 35.6925 26.3115 35.6932 26.3096V26.3086L36.2577 24.7725L36.6815 26.3525C36.6819 26.354 36.6824 26.3569 36.6835 26.3604C36.6863 26.3696 36.6918 26.3858 36.6991 26.4072C36.7137 26.4501 36.737 26.5148 36.7714 26.5938C36.8408 26.7534 36.9508 26.9644 37.1112 27.1729C37.4262 27.5822 37.9234 27.9717 38.7255 27.9717H45.2421C46.5223 27.9717 47.6259 27.7743 48.4022 27.2139C49.1432 26.6789 49.6814 25.7413 49.6815 24.0205C49.6815 23.6825 49.6886 23.3063 49.6952 22.9248C49.7018 22.5413 49.7079 22.1495 49.7069 21.7695C49.7048 20.9942 49.6716 20.3227 49.5692 19.8965C49.4373 19.3478 49.1584 18.8916 48.9032 18.5674C48.7768 18.4068 48.6591 18.2828 48.5751 18.2002C48.5332 18.1591 48.5 18.1286 48.4784 18.1094C48.4677 18.0999 48.4604 18.0927 48.4559 18.0889C48.4544 18.0876 48.4528 18.0866 48.452 18.0859L47.8876 17.626L48.5038 17.2451C48.505 17.2443 48.5073 17.2429 48.5096 17.2412C48.5186 17.2349 48.5348 17.2229 48.5565 17.2051C48.6003 17.1691 48.6649 17.1107 48.7343 17.0283C48.8721 16.8644 49.0286 16.6073 49.0907 16.2412C49.0976 16.1999 49.1064 16.0747 49.1093 15.8584C49.1119 15.656 49.11 15.4084 49.1063 15.1484C49.0991 14.6388 49.0839 14.0667 49.0839 13.7578C49.0839 13.6214 49.0839 13.4841 49.0712 13.3643C49.0649 13.3055 49.0568 13.2646 49.0497 13.2393L49.0487 13.2383L48.7899 12.9141L49.0936 12.5869C49.3647 12.2938 49.4346 12.0514 49.4384 11.8584C49.4423 11.6496 49.3692 11.4292 49.2362 11.1875C49.0957 10.9321 48.939 10.7334 48.7753 10.4893C48.704 10.383 48.6201 10.2511 48.5663 10.1143C48.5156 9.98549 48.4471 9.74069 48.5721 9.4873C48.6336 9.36277 48.7029 9.2383 48.7675 9.12109C48.8338 9.00061 48.8968 8.8858 48.9569 8.76758C49.0751 8.53501 49.1701 8.3086 49.2216 8.06934C49.6203 5.73358 49.2071 4.25583 48.5272 3.36133C47.8468 2.46652 46.8322 2.06663 45.8456 2.02051H41.2333C40.9831 2.02061 40.7824 2.0994 40.6415 2.17969C40.5713 2.21969 40.5185 2.25895 40.4852 2.28613C40.4687 2.29963 40.4567 2.30919 40.451 2.31445C40.4503 2.31518 40.4497 2.31588 40.4491 2.31641L40.0956 2.68652L39.7274 2.33789C39.7269 2.33743 39.7257 2.33693 39.7245 2.33594C39.7188 2.33128 39.7064 2.32103 39.6874 2.30762C39.6488 2.28047 39.5826 2.23849 39.4901 2.19531C39.3067 2.10977 39.011 2.01465 38.5966 2.01465C38.0994 2.01465 36.6707 2.01614 35.3661 2.01758C34.7139 2.0183 34.0927 2.01899 33.6346 2.01953C33.4056 2.0198 33.2169 2.02035 33.0858 2.02051H32.913C32.7737 2.03786 32.7298 2.04248 32.6669 2.06738C32.6083 2.09058 32.5037 2.14633 32.327 2.32227L31.9325 2.71582L31.5682 2.29395C31.4462 2.15246 31.3116 2.08523 31.2098 2.05176C31.1583 2.03482 31.1157 2.02695 31.0897 2.02344C31.0784 2.02192 31.0707 2.02075 31.0673 2.02051C30.0039 2.02054 29.3965 2.0263 28.8778 2.02051C28.7144 2.01868 28.5602 2.08149 28.4325 2.16309C28.3709 2.20248 28.322 2.24195 28.2899 2.27051C28.2741 2.28461 28.2627 2.29573 28.2567 2.30176C28.2538 2.30464 28.2521 2.3063 28.2518 2.30664L27.8544 2.74707L27.4716 2.28711C27.4206 2.22582 27.3226 2.1535 27.1815 2.09668C27.0601 2.04777 26.9353 2.02237 26.8348 2.0166L26.7938 2.01465H11.2772C10.7392 2.01476 10.4684 2.22501 10.3221 2.40137C10.2427 2.49718 10.1913 2.594 10.161 2.66602C10.1461 2.70153 10.1367 2.72969 10.1317 2.74609C10.1297 2.75257 10.1284 2.75737 10.1278 2.75977L9.72546 4.61719L9.12976 2.80957C9.12865 2.80655 9.12662 2.80012 9.12292 2.79102C9.11502 2.77158 9.10093 2.73949 9.08093 2.7002C9.04038 2.62057 8.97707 2.51443 8.8866 2.41016C8.7114 2.20825 8.44121 2.01475 8.00769 2.01465H5.27625Z" fill="url(#paint0_linear_49_128)"/>
<path d="M7.62561 2.99609C7.77632 2.99609 7.91004 3.0937 7.95569 3.2373L10.567 11.4814C10.6375 11.7043 10.4717 11.9314 10.2379 11.9316H8.8678C8.71684 11.9316 8.58316 11.8334 8.53772 11.6895L8.19006 10.5889C8.14462 10.4449 8.01092 10.3467 7.85999 10.3467H5.30237C5.14046 10.3467 4.9999 10.4592 4.96448 10.6172L4.7301 11.6611C4.69471 11.819 4.55491 11.9314 4.39319 11.9316H2.89124C2.65754 11.9315 2.4909 11.7043 2.56116 11.4814L5.1637 3.23828C5.20914 3.09432 5.34282 2.99609 5.49377 2.99609H7.62561ZM6.24768 6.39746C6.23806 6.41585 6.23003 6.43585 6.22327 6.45703L5.76038 7.90625C5.75006 7.93858 5.74561 7.97111 5.74475 8.00293L5.62952 8.37305H7.49084L6.5553 5.41699L6.24768 6.39746Z" fill="url(#paint1_linear_49_128)"/>
<mask id="path-4-inside-1_49_128" fill="white">
<path d="M7.62561 2.99609C7.77632 2.99609 7.91004 3.0937 7.95569 3.2373L10.567 11.4814C10.6375 11.7043 10.4717 11.9314 10.2379 11.9316H8.8678C8.71684 11.9316 8.58316 11.8334 8.53772 11.6895L8.19006 10.5889C8.14462 10.4449 8.01092 10.3467 7.85999 10.3467H5.30237C5.14046 10.3467 4.9999 10.4592 4.96448 10.6172L4.7301 11.6611C4.69471 11.819 4.55491 11.9314 4.39319 11.9316H2.89124C2.65754 11.9315 2.4909 11.7043 2.56116 11.4814L5.1637 3.23828C5.20914 3.09432 5.34282 2.99609 5.49377 2.99609H7.62561Z"/>
</mask>
<path d="M7.95569 3.2373L8.28552 3.13283L8.28541 3.1325L7.95569 3.2373ZM10.567 11.4814L10.8969 11.3772L10.8968 11.377L10.567 11.4814ZM10.2379 11.9316L10.2379 12.2776L10.2382 12.2776L10.2379 11.9316ZM8.53772 11.6895L8.86765 11.5853L8.86763 11.5852L8.53772 11.6895ZM8.19006 10.5889L7.86013 10.693L7.86015 10.6931L8.19006 10.5889ZM7.85999 10.3467L7.86003 10.0007H7.85999V10.3467ZM4.96448 10.6172L5.30205 10.693L5.30207 10.6929L4.96448 10.6172ZM4.7301 11.6611L4.39253 11.5853L4.39251 11.5854L4.7301 11.6611ZM4.39319 11.9316L4.39319 12.2776L4.39362 12.2776L4.39319 11.9316ZM2.89124 11.9316L2.89108 12.2776H2.89124V11.9316ZM2.56116 11.4814L2.23123 11.3773L2.23119 11.3774L2.56116 11.4814ZM5.1637 3.23828L5.49362 3.34245L5.49363 3.34243L5.1637 3.23828ZM7.62561 2.99609V3.34207L7.62597 3.34211L7.95569 3.2373L8.28541 3.1325C8.19401 2.84494 7.92669 2.65012 7.62561 2.65012V2.99609ZM7.95569 3.2373L7.62586 3.34178L10.2372 11.5859L10.567 11.4814L10.8968 11.377L8.28552 3.13283L7.95569 3.2373ZM10.567 11.4814L10.2371 11.5857L10.2376 11.5857L10.2379 11.9316L10.2382 12.2776C10.7064 12.2772 11.0376 11.8223 10.8969 11.3772L10.567 11.4814ZM10.2379 11.9316V11.5857H8.8678V11.9316V12.2776H10.2379V11.9316ZM8.8678 11.9316V11.5857L8.86765 11.5853L8.53772 11.6895L8.20779 11.7936C8.29856 12.0811 8.56548 12.2776 8.8678 12.2776V11.9316ZM8.53772 11.6895L8.86763 11.5852L8.51997 10.4847L8.19006 10.5889L7.86015 10.6931L8.20781 11.7937L8.53772 11.6895ZM8.19006 10.5889L8.51999 10.4847C8.42922 10.1972 8.16226 10.0007 7.86003 10.0007L7.85999 10.3467L7.85994 10.6927L7.86013 10.693L8.19006 10.5889ZM7.85999 10.3467V10.0007H5.30237V10.3467V10.6927H7.85999V10.3467ZM5.30237 10.3467V10.0007C4.97856 10.0007 4.69774 10.2255 4.62688 10.5415L4.96448 10.6172L5.30207 10.6929L5.30237 10.6927V10.3467ZM4.96448 10.6172L4.6269 10.5414L4.39253 11.5853L4.7301 11.6611L5.06768 11.7369L5.30205 10.693L4.96448 10.6172ZM4.7301 11.6611L4.39251 11.5854L4.39275 11.5857L4.39319 11.9316L4.39362 12.2776C4.71772 12.2772 4.99705 12.0519 5.0677 11.7368L4.7301 11.6611ZM4.39319 11.9316V11.5857H2.89124V11.9316V12.2776H4.39319V11.9316ZM2.89124 11.9316L2.89139 11.5857L2.89113 11.5855L2.56116 11.4814L2.23119 11.3774C2.09061 11.8234 2.42386 12.2774 2.89108 12.2776L2.89124 11.9316ZM2.56116 11.4814L2.89108 11.5856L5.49362 3.34245L5.1637 3.23828L4.83377 3.13412L2.23123 11.3773L2.56116 11.4814ZM5.1637 3.23828L5.49363 3.34243L5.49377 3.34207V2.99609V2.65012C5.19146 2.65012 4.92453 2.8466 4.83376 3.13414L5.1637 3.23828ZM5.49377 2.99609V3.34207H7.62561V2.99609V2.65012H5.49377V2.99609Z" fill="url(#paint2_linear_49_128)" mask="url(#path-4-inside-1_49_128)"/>
<path d="M16.4206 3.17188C16.6116 3.17188 16.7665 3.32677 16.7665 3.51785V4.81527C16.7665 5.00635 16.6116 5.16125 16.4206 5.16125H13.5048C13.3137 5.16125 13.1588 5.31615 13.1588 5.50723V6.18846C13.1588 6.37954 13.3137 6.53444 13.5048 6.53444H15.7723C15.9634 6.53444 16.1183 6.68933 16.1183 6.88041V8.17783C16.1183 8.36891 15.9634 8.52381 15.7723 8.52381H13.5048C13.3137 8.52381 13.1588 8.67871 13.1588 8.86979V9.59646C13.1588 9.78754 13.3137 9.94244 13.5048 9.94244H16.825C17.0161 9.94244 17.171 10.0973 17.171 10.2884V11.5858C17.171 11.7769 17.0161 11.9318 16.825 11.9318H11.5154C11.3243 11.9318 11.1694 11.7769 11.1694 11.5858V3.51785C11.1694 3.32677 11.3243 3.17188 11.5154 3.17188H16.4206Z" fill="url(#paint3_linear_49_128)"/>
<path d="M16.5933 3.34473V4.98828H12.9858V6.70703H15.9448V8.35059H12.9858V10.1152H16.9976V11.7588H11.3423V3.34473H16.5933Z" stroke="url(#paint4_linear_49_128)" stroke-width="0.345978"/>
<path d="M38.9594 3.12402C39.1504 3.12402 39.3053 3.27892 39.3053 3.47V4.76742C39.3053 4.9585 39.1504 5.1134 38.9594 5.1134H35.406C35.2149 5.1134 35.06 5.2683 35.06 5.45938V6.14061C35.06 6.33168 35.2149 6.48658 35.406 6.48658H38.2574C38.4485 6.48658 38.6034 6.64148 38.6034 6.83256V8.12998C38.6034 8.32106 38.4485 8.47596 38.2574 8.47596H35.406C35.2149 8.47596 35.06 8.63086 35.06 8.82194V9.54861C35.06 9.73969 35.2149 9.89459 35.406 9.89459H39.1888C39.3799 9.89459 39.5348 10.0495 39.5348 10.2406V11.538C39.5348 11.7291 39.3799 11.884 39.1888 11.884H33.1873C32.9962 11.884 32.8413 11.7291 32.8413 11.538V3.47C32.8413 3.27892 32.9962 3.12402 33.1873 3.12402H38.9594Z" fill="url(#paint5_linear_49_128)"/>
<path d="M39.1323 3.29688V4.94043H34.8872V6.65918H38.4302V8.30273H34.8872V10.0674H39.3618V11.7109H33.0142V3.29688H39.1323Z" stroke="url(#paint6_linear_49_128)" stroke-width="0.345978"/>
<path d="M23.431 3.16016C23.622 3.16016 23.7769 3.31506 23.7769 3.50613V4.80355C23.7769 4.99463 23.622 5.14953 23.431 5.14953H21.9345C21.7434 5.14953 21.5885 5.30443 21.5885 5.49551V11.5392C21.5885 11.7303 21.4336 11.8852 21.2425 11.8852H19.9451C19.754 11.8852 19.5991 11.7303 19.5991 11.5392V5.49551C19.5991 5.30443 19.4442 5.14953 19.2531 5.14953H17.9003C17.7092 5.14953 17.5543 4.99463 17.5543 4.80355V3.50613C17.5543 3.31506 17.7092 3.16016 17.9003 3.16016H23.431Z" fill="url(#paint7_linear_49_128)"/>
<path d="M23.6041 3.33301V4.97656H21.4156V11.7119H19.7721V4.97656H17.7272V3.33301H23.6041Z" stroke="url(#paint8_linear_49_128)" stroke-width="0.345978"/>
<path d="M26.1729 3.17773C26.364 3.17773 26.5189 3.33263 26.5189 3.52371V6.14887C26.5189 6.33995 26.6738 6.49485 26.8649 6.49485H28.881C29.072 6.49485 29.2269 6.33995 29.2269 6.14887V3.52371C29.2269 3.33263 29.3818 3.17773 29.5729 3.17773H30.8703C31.0614 3.17773 31.2163 3.33263 31.2163 3.52371V11.4833C31.2163 11.6744 31.0614 11.8293 30.8703 11.8293H29.5729C29.3818 11.8293 29.2269 11.6744 29.2269 11.4833V8.8302C29.2269 8.63913 29.072 8.48423 28.881 8.48423H26.8649C26.6738 8.48423 26.5189 8.63913 26.5189 8.8302V11.4833C26.5189 11.6744 26.364 11.8293 26.1729 11.8293H24.8755C24.6844 11.8293 24.5295 11.6744 24.5295 11.4833V3.52371C24.5295 3.33263 24.6844 3.17773 24.8755 3.17773H26.1729Z" fill="url(#paint9_linear_49_128)"/>
<path d="M26.3459 3.35059V6.66797H29.3997V3.35059H31.0432V11.6562H29.3997V8.31152H26.3459V11.6562H24.7024V3.35059H26.3459Z" stroke="url(#paint10_linear_49_128)" stroke-width="0.345978"/>
<path d="M38.4677 16.9394C38.4677 15.0723 39.2511 13.3037 41.3844 13.3037C42.8559 13.3037 44.9994 13.3037 47.3063 13.3037C47.4989 13.3037 47.6546 13.461 47.6524 13.6536L47.6302 15.6178C47.6281 15.8072 47.4741 15.9597 47.2846 15.9598C45.6191 15.9606 43.5059 15.9596 42.1047 15.9596C41.6804 15.9596 41.3844 16.4817 41.3844 16.9394C41.3844 17.1251 41.3844 17.9511 42.4815 18.0804L45.59 18.5087C46.6715 18.6447 48.3031 19.5508 48.3031 21.4737V23.0459C48.3031 24.6902 47.0932 26.0616 45.1161 26.0616H38.8136C38.6226 26.0616 38.4677 25.9067 38.4677 25.7156V23.6397C38.4677 23.4486 38.6208 23.2937 38.8119 23.2937C39.9223 23.2937 43.3959 23.2937 44.3951 23.2937C45.59 23.2937 45.6074 22.8069 45.6416 22.1865C45.6868 21.3658 45.1161 21.1425 44.0321 20.9749C42.9481 20.8074 40.6916 20.9238 39.6149 20.0162C38.8811 19.3976 38.4677 18.405 38.4677 16.9394Z" fill="url(#paint11_linear_49_128)"/>
<path d="M38.4677 16.9394C38.4677 15.0723 39.2511 13.3037 41.3844 13.3037C42.8559 13.3037 44.9994 13.3037 47.3063 13.3037C47.4989 13.3037 47.6546 13.461 47.6524 13.6536L47.6302 15.6178C47.6281 15.8072 47.4741 15.9597 47.2846 15.9598C45.6191 15.9606 43.5059 15.9596 42.1047 15.9596C41.6804 15.9596 41.3844 16.4817 41.3844 16.9394C41.3844 17.1251 41.3844 17.9511 42.4815 18.0804L45.59 18.5087C46.6715 18.6447 48.3031 19.5508 48.3031 21.4737V23.0459C48.3031 24.6902 47.0932 26.0616 45.1161 26.0616H38.8136C38.6226 26.0616 38.4677 25.9067 38.4677 25.7156V23.6397C38.4677 23.4486 38.6208 23.2937 38.8119 23.2937C39.9223 23.2937 43.3959 23.2937 44.3951 23.2937C45.59 23.2937 45.6074 22.8069 45.6416 22.1865C45.6868 21.3658 45.1161 21.1425 44.0321 20.9749C42.9481 20.8074 40.6916 20.9238 39.6149 20.0162C38.8811 19.3976 38.4677 18.405 38.4677 16.9394Z" fill="url(#paint12_linear_49_128)"/>
<path d="M41.3846 13.6064H47.3505L47.327 15.6572C45.6552 15.658 43.5179 15.6572 42.1044 15.6572C41.7571 15.6573 41.4954 15.8712 41.3348 16.1084C41.1733 16.3472 41.0819 16.6514 41.0819 16.9395C41.0819 17.0381 41.079 17.36 41.2567 17.6787C41.4458 18.0177 41.8109 18.306 42.4462 18.3809V18.3799L45.5487 18.8086H45.5526C46.0376 18.8697 46.6569 19.1074 47.1503 19.5469C47.6364 19.98 48.0008 20.6081 48.0009 21.4736V23.0459C48.0009 24.5223 46.9267 25.7588 45.1161 25.7588H38.7704V23.5967H44.3954C45.0158 23.5966 45.4435 23.4737 45.6913 23.1611C45.8114 23.0097 45.8679 22.8384 45.8983 22.6777C45.9279 22.5211 45.936 22.3521 45.9442 22.2031C45.9574 21.9629 45.9267 21.743 45.8368 21.5479C45.7456 21.35 45.6027 21.1989 45.4266 21.083C45.0922 20.8629 44.6155 20.7589 44.078 20.6758C43.7919 20.6316 43.4335 20.6066 43.0575 20.5801C42.6756 20.5532 42.2658 20.5241 41.8583 20.4727C41.0288 20.3679 40.2756 20.177 39.8104 19.7852C39.1665 19.2424 38.7704 18.3488 38.7704 16.9395C38.7704 16.0413 38.9601 15.2002 39.3759 14.5928C39.7809 14.0012 40.416 13.6064 41.3846 13.6064Z" stroke="url(#paint13_linear_49_128)" stroke-width="0.605462" stroke-linejoin="round"/>
<path d="M37.0932 13.3037C37.2843 13.3037 37.4392 13.4586 37.4392 13.6497V15.7256C37.4392 15.9166 37.2843 16.0715 37.0932 16.0715H34.3902C34.1991 16.0715 34.0442 16.2264 34.0442 16.4175V25.6517C34.0442 25.8428 33.8893 25.9977 33.6982 25.9977H31.6224C31.4313 25.9977 31.2764 25.8428 31.2764 25.6517V16.4175C31.2764 16.2264 31.1215 16.0715 30.9304 16.0715H28.0136C27.8225 16.0715 27.6676 15.9166 27.6676 15.7256V13.6497C27.6676 13.4586 27.8225 13.3037 28.0136 13.3037H37.0932Z" fill="url(#paint14_linear_49_128)"/>
<path d="M37.0932 13.3037C37.2843 13.3037 37.4392 13.4586 37.4392 13.6497V15.7256C37.4392 15.9166 37.2843 16.0715 37.0932 16.0715H34.3902C34.1991 16.0715 34.0442 16.2264 34.0442 16.4175V25.6517C34.0442 25.8428 33.8893 25.9977 33.6982 25.9977H31.6224C31.4313 25.9977 31.2764 25.8428 31.2764 25.6517V16.4175C31.2764 16.2264 31.1215 16.0715 30.9304 16.0715H28.0136C27.8225 16.0715 27.6676 15.9166 27.6676 15.7256V13.6497C27.6676 13.4586 27.8225 13.3037 28.0136 13.3037H37.0932Z" fill="url(#paint15_linear_49_128)"/>
<path d="M37.1364 13.6064V15.7686H34.0446C33.8774 15.7686 33.742 15.9042 33.7418 16.0713V25.6953H31.5787V16.0713C31.5786 15.9042 31.4431 15.7686 31.276 15.7686H27.9703V13.6064H37.1364Z" stroke="url(#paint16_linear_49_128)" stroke-width="0.605462" stroke-linejoin="round"/>
<path d="M24.0425 17.2381C24.0425 16.1704 23.1037 16.0333 22.8114 16.0333H19.4303C18.8056 16.0333 18.32 16.4654 18.32 17.2381V21.9627C18.3325 23.2419 19.2776 23.5593 19.8381 23.5593H22.6371C22.9258 23.5593 24.0425 23.3252 24.0425 22.2288V17.2381ZM26.8103 22.2288C26.8103 24.5548 25.8449 26.095 23.2095 26.095C22.2194 26.095 20.8924 26.095 18.853 26.095C16.6776 26.095 15.5184 24.3912 15.5184 22.0221L15.5184 16.9786C15.5184 15.3226 16.2947 13.3301 18.8056 13.3301C20.6514 13.3301 22.9856 13.3301 23.599 13.3301C25.6481 13.3301 26.8103 15.3495 26.8103 16.9786V22.2288Z" fill="url(#paint17_linear_49_128)"/>
<path d="M24.0425 17.2381C24.0425 16.1704 23.1037 16.0333 22.8114 16.0333H19.4303C18.8056 16.0333 18.32 16.4654 18.32 17.2381V21.9627C18.3325 23.2419 19.2776 23.5593 19.8381 23.5593H22.6371C22.9258 23.5593 24.0425 23.3252 24.0425 22.2288V17.2381ZM26.8103 22.2288C26.8103 24.5548 25.8449 26.095 23.2095 26.095C22.2194 26.095 20.8924 26.095 18.853 26.095C16.6776 26.095 15.5184 24.3912 15.5184 22.0221L15.5184 16.9786C15.5184 15.3226 16.2947 13.3301 18.8056 13.3301C20.6514 13.3301 22.9856 13.3301 23.599 13.3301C25.6481 13.3301 26.8103 15.3495 26.8103 16.9786V22.2288Z" fill="url(#paint18_linear_49_128)"/>
<path d="M18.8055 13.6328H23.5985C24.5124 13.6328 25.2328 14.0799 25.7333 14.7285C26.2381 15.3828 26.5077 16.2293 26.5077 16.9785V22.2285C26.5077 23.3572 26.2717 24.2406 25.7665 24.8389C25.2697 25.427 24.467 25.7919 23.2098 25.792H18.8534C17.8538 25.792 17.1104 25.405 16.6093 24.7607C16.1008 24.1071 15.8212 23.1618 15.8212 22.0225V16.9785C15.8212 16.1906 16.0066 15.3473 16.4657 14.71C16.9141 14.0875 17.6429 13.6328 18.8055 13.6328ZM19.4305 15.7305C19.0472 15.7305 18.6872 15.8645 18.4237 16.1348C18.1601 16.4053 18.0175 16.7873 18.0175 17.2383V21.9658C18.0246 22.6891 18.3003 23.1786 18.6874 23.4795C19.0615 23.7702 19.5092 23.8623 19.8378 23.8623H22.6376C22.832 23.8622 23.2393 23.7907 23.6073 23.5625C23.9922 23.3237 24.3456 22.9023 24.3456 22.2285V17.2383C24.3456 16.5959 24.0533 16.1985 23.6962 15.9775C23.3602 15.7698 22.99 15.7305 22.8114 15.7305H19.4305Z" stroke="url(#paint19_linear_49_128)" stroke-width="0.605462" stroke-linejoin="round"/>
<path d="M10.2729 20.7529H5.99025V23.4355H10.2299C11.6832 23.2913 11.5465 20.7529 10.2729 20.7529ZM10.7928 16.9605C10.8685 15.9961 9.88434 15.8203 9.4502 15.8203H6.01009V18.2405H9.69222C10.4989 18.2405 10.7317 17.7392 10.7928 16.9605ZM13.5502 16.7299C13.5502 18.4109 13.1572 18.8352 12.1008 19.3807C13.1919 20.0301 13.9798 20.2986 13.9798 22.4703C13.9798 24.0372 13.5502 26.0221 10.7823 26.0221H3.84022C3.07591 26.0221 3.10266 25.4936 3.10265 24.7293V14.6878C3.10265 13.9235 3.07591 13.3281 3.84022 13.3281C5.50384 13.3281 8.08433 13.3281 10.3015 13.3281C12.5857 13.3281 13.5502 14.7811 13.5502 16.7299Z" fill="url(#paint20_linear_49_128)"/>
<path d="M3.83984 13.6309H10.3018C11.3761 13.6309 12.0966 13.9703 12.5537 14.4971C13.017 15.0311 13.247 15.8008 13.2471 16.7295C13.2471 17.5558 13.1485 18.0136 12.9619 18.3252C12.778 18.6322 12.4826 18.8424 11.9619 19.1113C11.8642 19.1618 11.8012 19.2621 11.7979 19.3721C11.7947 19.4818 11.8519 19.5845 11.9463 19.6406C12.5242 19.9846 12.923 20.1793 13.2119 20.543C13.485 20.8868 13.6768 21.4178 13.6768 22.4707C13.6767 23.2372 13.5698 24.0515 13.166 24.668C12.7782 25.26 12.0829 25.7197 10.7822 25.7197H3.83984C3.68084 25.7197 3.59834 25.691 3.55566 25.666C3.51969 25.6449 3.49103 25.6146 3.4668 25.5527C3.43946 25.4827 3.42186 25.3813 3.41309 25.2354C3.40436 25.09 3.40527 24.926 3.40527 24.7295V14.6875C3.40527 14.4913 3.4043 14.322 3.41309 14.1699C3.42191 14.0177 3.44027 13.9063 3.46973 13.8252C3.49706 13.75 3.52927 13.7115 3.56641 13.6875C3.60745 13.661 3.68643 13.6309 3.83984 13.6309ZM5.99023 20.4502C5.82305 20.4502 5.6875 20.5857 5.6875 20.7529V23.4355C5.6875 23.6027 5.82305 23.7383 5.99023 23.7383H10.2295C10.2395 23.7383 10.2498 23.7373 10.2598 23.7363C10.7213 23.6905 11.0639 23.4501 11.2812 23.123C11.4934 22.8038 11.5838 22.4096 11.5771 22.0352C11.5704 21.661 11.4656 21.2767 11.2549 20.9775C11.0392 20.6714 10.7058 20.4502 10.2725 20.4502H5.99023ZM6.00977 15.5176C5.84272 15.5178 5.70703 15.6532 5.70703 15.8203V18.2402C5.70703 18.4073 5.84272 18.5428 6.00977 18.543H9.69238C10.1651 18.5429 10.5269 18.3917 10.7646 18.0742C10.9851 17.7797 11.0632 17.3861 11.0947 16.9844C11.1179 16.6889 11.0601 16.4345 10.9375 16.2236C10.8163 16.0151 10.6427 15.8679 10.4619 15.7656C10.1083 15.5656 9.69523 15.5176 9.4502 15.5176H6.00977Z" stroke="url(#paint21_linear_49_128)" stroke-width="0.605462" stroke-linejoin="round"/>
<path d="M45.6561 3.16256C45.6746 3.16307 45.692 3.16505 45.7101 3.16868C46.2809 3.28285 46.6398 3.50753 47.136 3.96959C47.6797 4.476 47.8844 5.30862 47.8666 6.12229C47.8433 7.18673 47.707 8.05102 46.57 8.70498C46.3866 8.81051 46.3162 9.04788 46.4321 9.22498L47.8333 11.3663C47.9838 11.5964 47.8187 11.9018 47.5438 11.9018H45.9154C45.7955 11.9018 45.6842 11.8397 45.6211 11.7377L44.1628 9.37925C44.0997 9.27729 43.9884 9.21523 43.8685 9.21523H43.1647C42.9736 9.21523 42.8187 9.37013 42.8187 9.56121V11.5558C42.8187 11.7469 42.6638 11.9018 42.4728 11.9018H41.1236C40.9325 11.9018 40.7776 11.7469 40.7776 11.5558V3.48074C40.7776 3.28966 40.9314 3.13475 41.1224 3.1348C42.2689 3.13508 44.7577 3.1377 45.6561 3.16256ZM43.1633 5.15143C42.9728 5.15187 42.8187 5.30657 42.8187 5.49705V6.87611C42.8187 7.06685 42.9731 7.2216 43.1638 7.22209L44.6453 7.22586C45.0205 7.22586 45.4514 7.15699 45.6827 6.82717C45.7681 6.70537 45.7913 6.47828 45.8002 6.07226C45.8002 5.36429 45.3708 5.15261 44.8387 5.15261C44.1461 5.15261 43.7574 5.15003 43.1633 5.15143Z" fill="url(#paint22_linear_49_128)"/>
<path d="M40.9504 3.30762C42.0028 3.30771 44.7273 3.30858 45.6614 3.33496C46.1994 3.43996 46.5323 3.64357 47.0178 4.0957C47.5096 4.5537 47.7108 5.32715 47.6936 6.11816C47.6809 6.69919 47.6339 7.18942 47.425 7.61426C47.2196 8.032 46.8466 8.40761 46.1399 8.73145L45.9573 8.81543L46.0676 8.9834L47.8645 11.7285H45.8186L44.2083 9.12402L44.1575 9.04199H42.6458V11.7285H40.9504V3.30762ZM42.8176 4.97949L42.6458 4.98047V7.39355L42.8186 7.39453L44.6448 7.39844H44.6458C45.0256 7.39839 45.5396 7.3328 45.8245 6.92676C45.8906 6.83243 45.9228 6.71266 45.9417 6.58105C45.9608 6.44722 45.9684 6.27977 45.9729 6.07617V6.07227C45.9729 5.68189 45.8531 5.39588 45.6282 5.21289C45.4103 5.03563 45.1233 4.97955 44.8391 4.97949C44.0229 4.97949 43.6263 4.97591 42.8176 4.97949Z" stroke="url(#paint23_linear_49_128)" stroke-width="0.345978"/>
<path d="M62.5242 23.5H59.9451L65.7402 7.39629H68.5473L74.3425 23.5H71.7634L67.2106 10.3214H67.0848L62.5242 23.5ZM62.9567 17.1938H71.323V19.2382H62.9567V17.1938ZM81.4901 23.7438C80.3001 23.7438 79.2753 23.4895 78.4156 22.981C77.5611 22.4673 76.9006 21.7465 76.4341 20.8187C75.9728 19.8856 75.7421 18.7926 75.7421 17.5397C75.7421 16.3026 75.9728 15.2122 76.4341 14.2687C76.9006 13.3251 77.5506 12.5886 78.3841 12.0591C79.2229 11.5297 80.2031 11.265 81.325 11.265C82.0064 11.265 82.6669 11.3777 83.3065 11.6031C83.946 11.8285 84.52 12.1823 85.0285 12.6646C85.537 13.1469 85.938 13.7733 86.2316 14.5439C86.5251 15.3092 86.6719 16.2397 86.6719 17.3353V18.1688H77.071V16.4074H84.368C84.368 15.7889 84.2422 15.2411 83.9906 14.7641C83.7389 14.2818 83.3851 13.9017 82.929 13.6239C82.4782 13.3461 81.9488 13.2071 81.3407 13.2071C80.6802 13.2071 80.1035 13.3697 79.6108 13.6947C79.1233 14.0144 78.7458 14.4338 78.4785 14.9528C78.2164 15.4665 78.0853 16.0248 78.0853 16.6276V18.0037C78.0853 18.8109 78.2269 19.4977 78.5099 20.0638C78.7983 20.63 79.1993 21.0624 79.713 21.3612C80.2267 21.6548 80.827 21.8016 81.5137 21.8016C81.9592 21.8016 82.3655 21.7387 82.7325 21.6128C83.0994 21.4818 83.4165 21.2878 83.6839 21.031C83.9512 20.7741 84.1557 20.457 84.2972 20.0795L86.5225 20.4806C86.3443 21.1358 86.0245 21.7098 85.5632 22.2026C85.1071 22.6901 84.5331 23.0701 83.8412 23.3427C83.1544 23.6101 82.3707 23.7438 81.4901 23.7438ZM94.9184 11.4222V13.3094H88.3212V11.4222H94.9184ZM90.0904 8.52858H92.4415V19.9537C92.4415 20.4098 92.5096 20.7531 92.6459 20.9838C92.7822 21.2092 92.9578 21.3638 93.1727 21.4477C93.3929 21.5264 93.6314 21.5657 93.8883 21.5657C94.077 21.5657 94.2421 21.5526 94.3837 21.5264C94.5252 21.5001 94.6353 21.4792 94.7139 21.4634L95.1385 23.4056C95.0022 23.4581 94.8083 23.5105 94.5567 23.5629C94.305 23.6206 93.9905 23.652 93.6131 23.6573C92.9945 23.6677 92.4179 23.5577 91.8832 23.327C91.3485 23.0964 90.916 22.7399 90.5858 22.2576C90.2555 21.7754 90.0904 21.1699 90.0904 20.4412V8.52858ZM100.13 16.3288V23.5H97.7786V7.39629H100.098V13.388H100.248C100.531 12.738 100.963 12.2216 101.545 11.839C102.127 11.4563 102.887 11.265 103.825 11.265C104.654 11.265 105.377 11.4353 105.996 11.7761C106.619 12.1168 107.102 12.6253 107.442 13.3015C107.788 13.9725 107.961 14.8112 107.961 15.8177V23.5H105.61V16.1008C105.61 15.2149 105.382 14.5282 104.926 14.0406C104.47 13.5479 103.836 13.3015 103.023 13.3015C102.468 13.3015 101.97 13.4195 101.529 13.6553C101.094 13.8912 100.751 14.2372 100.499 14.6933C100.253 15.1441 100.13 15.6893 100.13 16.3288ZM116.304 23.7438C115.114 23.7438 114.089 23.4895 113.23 22.981C112.375 22.4673 111.715 21.7465 111.248 20.8187C110.787 19.8856 110.556 18.7926 110.556 17.5397C110.556 16.3026 110.787 15.2122 111.248 14.2687C111.715 13.3251 112.365 12.5886 113.198 12.0591C114.037 11.5297 115.017 11.265 116.139 11.265C116.82 11.265 117.481 11.3777 118.121 11.6031C118.76 11.8285 119.334 12.1823 119.843 12.6646C120.351 13.1469 120.752 13.7733 121.046 14.5439C121.339 15.3092 121.486 16.2397 121.486 17.3353V18.1688H111.885V16.4074H119.182C119.182 15.7889 119.056 15.2411 118.805 14.7641C118.553 14.2818 118.199 13.9017 117.743 13.6239C117.292 13.3461 116.763 13.2071 116.155 13.2071C115.494 13.2071 114.918 13.3697 114.425 13.6947C113.937 14.0144 113.56 14.4338 113.293 14.9528C113.03 15.4665 112.899 16.0248 112.899 16.6276V18.0037C112.899 18.8109 113.041 19.4977 113.324 20.0638C113.612 20.63 114.013 21.0624 114.527 21.3612C115.041 21.6548 115.641 21.8016 116.328 21.8016C116.773 21.8016 117.18 21.7387 117.547 21.6128C117.913 21.4818 118.231 21.2878 118.498 21.031C118.765 20.7741 118.97 20.457 119.111 20.0795L121.337 20.4806C121.158 21.1358 120.839 21.7098 120.377 22.2026C119.921 22.6901 119.347 23.0701 118.655 23.3427C117.968 23.6101 117.185 23.7438 116.304 23.7438ZM124.095 23.5V11.4222H126.367V13.3408H126.493C126.713 12.6908 127.101 12.1797 127.657 11.8075C128.217 11.4301 128.852 11.2414 129.559 11.2414C129.706 11.2414 129.879 11.2466 130.078 11.2571C130.283 11.2676 130.443 11.2807 130.558 11.2964V13.5453C130.464 13.5191 130.296 13.4902 130.055 13.4588C129.814 13.4221 129.573 13.4037 129.331 13.4037C128.776 13.4037 128.28 13.5217 127.845 13.7576C127.415 13.9882 127.075 14.3106 126.823 14.7247C126.571 15.1336 126.446 15.6002 126.446 16.1244V23.5H124.095ZM132.781 23.5V7.39629H135.132V13.3801H135.274C135.41 13.1285 135.607 12.8376 135.864 12.5073C136.121 12.1771 136.477 11.8888 136.933 11.6424C137.389 11.3908 137.992 11.265 138.742 11.265C139.717 11.265 140.587 11.5113 141.352 12.0041C142.118 12.4968 142.718 13.2071 143.153 14.135C143.593 15.0629 143.813 16.1794 143.813 17.4847C143.813 18.79 143.596 19.9092 143.161 20.8423C142.726 21.7701 142.128 22.4857 141.368 22.9889C140.608 23.4869 139.74 23.7359 138.765 23.7359C138.031 23.7359 137.431 23.6127 136.965 23.3663C136.503 23.1199 136.142 22.8316 135.879 22.5014C135.617 22.1711 135.415 21.8776 135.274 21.6207H135.077V23.5H132.781ZM135.085 17.4611C135.085 18.3103 135.208 19.0547 135.455 19.6942C135.701 20.3338 136.058 20.8344 136.524 21.1961C136.991 21.5526 137.562 21.7308 138.238 21.7308C138.941 21.7308 139.528 21.5447 140 21.1725C140.471 20.7951 140.828 20.284 141.069 19.6392C141.315 18.9944 141.439 18.2684 141.439 17.4611C141.439 16.6643 141.318 15.9488 141.077 15.3145C140.841 14.6802 140.485 14.1796 140.008 13.8126C139.536 13.4457 138.946 13.2622 138.238 13.2622C137.557 13.2622 136.98 13.4378 136.508 13.789C136.042 14.1402 135.688 14.6304 135.447 15.2594C135.206 15.8885 135.085 16.6224 135.085 17.4611ZM151.541 23.7438C150.409 23.7438 149.42 23.4843 148.576 22.9653C147.732 22.4463 147.077 21.7203 146.611 20.7872C146.144 19.8541 145.911 18.7638 145.911 17.5161C145.911 16.2633 146.144 15.1677 146.611 14.2294C147.077 13.291 147.732 12.5624 148.576 12.0434C149.42 11.5244 150.409 11.265 151.541 11.265C152.673 11.265 153.661 11.5244 154.505 12.0434C155.349 12.5624 156.004 13.291 156.471 14.2294C156.938 15.1677 157.171 16.2633 157.171 17.5161C157.171 18.7638 156.938 19.8541 156.471 20.7872C156.004 21.7203 155.349 22.4463 154.505 22.9653C153.661 23.4843 152.673 23.7438 151.541 23.7438ZM151.549 21.7701C152.283 21.7701 152.891 21.5762 153.373 21.1882C153.855 20.8003 154.212 20.284 154.442 19.6392C154.678 18.9944 154.796 18.2841 154.796 17.5083C154.796 16.7377 154.678 16.03 154.442 15.3852C154.212 14.7352 153.855 14.2136 153.373 13.8205C152.891 13.4273 152.283 13.2307 151.549 13.2307C150.81 13.2307 150.196 13.4273 149.709 13.8205C149.226 14.2136 148.867 14.7352 148.631 15.3852C148.401 16.03 148.285 16.7377 148.285 17.5083C148.285 18.2841 148.401 18.9944 148.631 19.6392C148.867 20.284 149.226 20.8003 149.709 21.1882C150.196 21.5762 150.81 21.7701 151.549 21.7701ZM165.433 11.4222V13.3094H158.836V11.4222H165.433ZM160.605 8.52858H162.956V19.9537C162.956 20.4098 163.024 20.7531 163.161 20.9838C163.297 21.2092 163.472 21.3638 163.687 21.4477C163.908 21.5264 164.146 21.5657 164.403 21.5657C164.592 21.5657 164.757 21.5526 164.898 21.5264C165.04 21.5001 165.15 21.4792 165.229 21.4634L165.653 23.4056C165.517 23.4581 165.323 23.5105 165.071 23.5629C164.82 23.6206 164.505 23.652 164.128 23.6573C163.509 23.6677 162.933 23.5577 162.398 23.327C161.863 23.0964 161.431 22.7399 161.1 22.2576C160.77 21.7754 160.605 21.1699 160.605 20.4412V8.52858ZM175.913 23.5H171.729L177.163 7.39629H182.345L187.778 23.5H183.595L179.813 11.4537H179.687L175.913 23.5ZM175.354 17.1623H184.098V20.1188H175.354V17.1623ZM194.393 23.728C193.119 23.728 192.026 23.4659 191.114 22.9417C190.207 22.4175 189.51 21.6889 189.022 20.7558C188.535 19.8174 188.291 18.7323 188.291 17.5004C188.291 16.2633 188.535 15.1782 189.022 14.2451C189.515 13.3067 190.215 12.5755 191.122 12.0513C192.034 11.5271 193.122 11.265 194.385 11.265C195.502 11.265 196.474 11.4668 197.302 11.8704C198.136 12.2741 198.786 12.8454 199.252 13.5846C199.724 14.3185 199.973 15.1808 199.999 16.1716H196.406C196.333 15.553 196.123 15.0681 195.777 14.7169C195.436 14.3657 194.991 14.19 194.44 14.19C193.995 14.19 193.604 14.3159 193.269 14.5675C192.933 14.8139 192.671 15.1808 192.482 15.6683C192.299 16.1506 192.207 16.7482 192.207 17.4611C192.207 18.174 192.299 18.7769 192.482 19.2696C192.671 19.7571 192.933 20.1267 193.269 20.3783C193.604 20.6247 193.995 20.7479 194.44 20.7479C194.797 20.7479 195.111 20.6719 195.384 20.5199C195.662 20.3678 195.89 20.1451 196.068 19.8515C196.246 19.5527 196.359 19.191 196.406 18.7664H199.999C199.963 19.7624 199.714 20.6326 199.252 21.377C198.796 22.1213 198.154 22.7006 197.326 23.1147C196.503 23.5236 195.525 23.728 194.393 23.728ZM205.372 23.7044C204.601 23.7044 203.917 23.576 203.32 23.3191C202.727 23.057 202.258 22.6639 201.912 22.1397C201.571 21.6102 201.401 20.9471 201.401 20.1503C201.401 19.4793 201.519 18.9132 201.755 18.4519C201.991 17.9906 202.316 17.6157 202.73 17.3274C203.144 17.0391 203.621 16.8216 204.161 16.6748C204.701 16.5228 205.278 16.4206 205.891 16.3681C206.578 16.3052 207.131 16.2397 207.55 16.1716C207.969 16.0982 208.273 15.9959 208.462 15.8649C208.656 15.7286 208.753 15.5373 208.753 15.2909V15.2516C208.753 14.8479 208.614 14.536 208.336 14.3159C208.058 14.0957 207.684 13.9856 207.212 13.9856C206.703 13.9856 206.295 14.0957 205.985 14.3159C205.676 14.536 205.479 14.8401 205.395 15.228L201.849 15.1022C201.954 14.3683 202.224 13.713 202.659 13.1364C203.099 12.5545 203.702 12.0984 204.468 11.7682C205.238 11.4327 206.163 11.265 207.243 11.265C208.014 11.265 208.724 11.3567 209.374 11.5402C210.024 11.7184 210.59 11.9805 211.073 12.3265C211.555 12.6672 211.927 13.0866 212.189 13.5846C212.457 14.0826 212.59 14.6513 212.59 15.2909V23.5H208.973V21.8173H208.879C208.664 22.2262 208.389 22.5721 208.053 22.8552C207.723 23.1383 207.332 23.3506 206.882 23.4921C206.436 23.6337 205.933 23.7044 205.372 23.7044ZM206.559 21.1882C206.973 21.1882 207.346 21.1044 207.676 20.9366C208.011 20.7689 208.279 20.5382 208.478 20.2447C208.677 19.9459 208.777 19.5999 208.777 19.2067V18.0587C208.667 18.1164 208.533 18.1688 208.376 18.216C208.224 18.2631 208.056 18.3077 207.872 18.3496C207.689 18.3916 207.5 18.4283 207.306 18.4597C207.112 18.4912 206.926 18.52 206.748 18.5462C206.386 18.6039 206.077 18.693 205.82 18.8136C205.568 18.9341 205.375 19.0914 205.238 19.2854C205.107 19.4741 205.042 19.6995 205.042 19.9616C205.042 20.36 205.183 20.664 205.466 20.8737C205.755 21.0834 206.119 21.1882 206.559 21.1882ZM219.353 23.673C218.461 23.673 217.651 23.4423 216.923 22.981C216.194 22.5197 215.612 21.8278 215.177 20.9052C214.742 19.9826 214.525 18.8372 214.525 17.469C214.525 16.0484 214.75 14.8794 215.201 13.962C215.652 13.0446 216.241 12.3658 216.97 11.9255C217.704 11.4851 218.493 11.265 219.337 11.265C219.971 11.265 220.514 11.375 220.965 11.5952C221.415 11.8101 221.788 12.088 222.081 12.4287C222.375 12.7694 222.597 13.1233 222.749 13.4902H222.828V7.39629H226.673V23.5H222.867V21.5421H222.749C222.587 21.9143 222.356 22.2629 222.057 22.5879C221.759 22.9129 221.384 23.175 220.933 23.3742C220.487 23.5734 219.961 23.673 219.353 23.673ZM220.689 20.6771C221.156 20.6771 221.554 20.5461 221.884 20.284C222.215 20.0166 222.469 19.6418 222.647 19.1595C222.825 18.6773 222.915 18.1111 222.915 17.4611C222.915 16.8006 222.825 16.2318 222.647 15.7548C222.474 15.2778 222.22 14.9108 221.884 14.654C221.554 14.3971 221.156 14.2687 220.689 14.2687C220.212 14.2687 219.809 14.3997 219.478 14.6618C219.148 14.9239 218.896 15.2935 218.724 15.7705C218.556 16.2476 218.472 16.8111 218.472 17.4611C218.472 18.1111 218.558 18.6773 218.731 19.1595C218.904 19.6418 219.153 20.0166 219.478 20.284C219.809 20.5461 220.212 20.6771 220.689 20.6771ZM234.751 23.728C233.487 23.728 232.397 23.479 231.479 22.981C230.567 22.4778 229.865 21.7622 229.372 20.8344C228.885 19.9013 228.641 18.7926 228.641 17.5083C228.641 16.2607 228.887 15.1703 229.38 14.2372C229.873 13.2989 230.567 12.5702 231.464 12.0513C232.36 11.5271 233.416 11.265 234.633 11.265C235.492 11.265 236.279 11.3986 236.992 11.666C237.704 11.9333 238.32 12.3291 238.839 12.8533C239.358 13.3775 239.762 14.0249 240.05 14.7955C240.339 15.5608 240.483 16.4389 240.483 17.4297V18.389H229.985V16.1558H236.905C236.9 15.7469 236.803 15.3826 236.614 15.0629C236.425 14.7431 236.166 14.4941 235.836 14.3159C235.511 14.1324 235.136 14.0406 234.711 14.0406C234.281 14.0406 233.896 14.1376 233.555 14.3316C233.215 14.5203 232.945 14.7798 232.745 15.11C232.546 15.435 232.441 15.8046 232.431 16.2187V18.4912C232.431 18.9839 232.528 19.4164 232.722 19.7886C232.916 20.1555 233.191 20.4412 233.547 20.6457C233.904 20.8501 234.329 20.9523 234.821 20.9523C235.162 20.9523 235.471 20.9052 235.749 20.8108C236.027 20.7164 236.266 20.5775 236.465 20.3941C236.664 20.2106 236.813 19.9852 236.913 19.7178L240.443 19.8201C240.297 20.6116 239.974 21.3009 239.476 21.8881C238.984 22.4699 238.336 22.9234 237.534 23.2484C236.732 23.5681 235.804 23.728 234.751 23.728ZM242.447 23.5V11.4222H246.103V13.6396H246.237C246.488 12.9057 246.913 12.3265 247.51 11.9019C248.108 11.4773 248.821 11.265 249.649 11.265C250.488 11.265 251.206 11.4799 251.804 11.9097C252.401 12.3396 252.781 12.9162 252.944 13.6396H253.07C253.295 12.9215 253.735 12.3474 254.391 11.9176C255.046 11.4825 255.819 11.265 256.71 11.265C257.853 11.265 258.781 11.6319 259.494 12.3658C260.207 13.0944 260.563 14.0957 260.563 15.3695V23.5H256.718V16.2502C256.718 15.6473 256.564 15.1887 256.254 14.8741C255.945 14.5544 255.544 14.3945 255.051 14.3945C254.522 14.3945 254.105 14.5675 253.801 14.9135C253.502 15.2542 253.353 15.7129 253.353 16.2895V23.5H249.657V16.2109C249.657 15.65 249.505 15.207 249.201 14.882C248.897 14.557 248.496 14.3945 247.998 14.3945C247.662 14.3945 247.366 14.4757 247.109 14.6382C246.853 14.7955 246.651 15.0209 246.504 15.3145C246.362 15.608 246.292 15.954 246.292 16.3524V23.5H242.447ZM264.864 28.0292C264.403 28.0292 263.968 27.9925 263.559 27.9191C263.15 27.8509 262.799 27.7592 262.505 27.6439L263.355 24.8525C263.732 24.9783 264.073 25.0517 264.377 25.0726C264.686 25.0936 264.951 25.0438 265.171 24.9232C265.396 24.8079 265.569 24.6008 265.69 24.302L265.839 23.9403L261.546 11.4222H265.572L267.797 20.0402H267.923L270.18 11.4222H274.229L269.677 24.6559C269.456 25.3164 269.145 25.8983 268.741 26.4015C268.343 26.91 267.826 27.3084 267.192 27.5967C266.563 27.885 265.787 28.0292 264.864 28.0292Z" fill="#F6F6F6"/>
<defs>
<linearGradient id="paint0_linear_49_128" x1="25.3725" y1="0.976562" x2="25.3725" y2="29.0244" gradientUnits="userSpaceOnUse">
<stop stop-color="#72E6F2"/>
<stop offset="0.961538" stop-color="#00D6EC"/>
</linearGradient>
<linearGradient id="paint1_linear_49_128" x1="6.56474" y1="2.99609" x2="6.56474" y2="11.9316" gradientUnits="userSpaceOnUse">
<stop stop-color="#00FBDE"/>
<stop offset="0.625" stop-color="#00C7E1"/>
</linearGradient>
<linearGradient id="paint2_linear_49_128" x1="4.4033" y1="2.99609" x2="6.56494" y2="9.03365" gradientUnits="userSpaceOnUse">
<stop stop-color="white"/>
<stop offset="1" stop-color="white" stop-opacity="0"/>
</linearGradient>
<linearGradient id="paint3_linear_49_128" x1="14.1702" y1="3.17188" x2="14.1702" y2="11.9318" gradientUnits="userSpaceOnUse">
<stop stop-color="#00FBDE"/>
<stop offset="0.625" stop-color="#00C7E1"/>
</linearGradient>
<linearGradient id="paint4_linear_49_128" x1="12.5565" y1="3.17188" x2="15.1275" y2="8.6408" gradientUnits="userSpaceOnUse">
<stop stop-color="white"/>
<stop offset="1" stop-color="white" stop-opacity="0"/>
</linearGradient>
<linearGradient id="paint5_linear_49_128" x1="36.1881" y1="3.12402" x2="36.1881" y2="11.884" gradientUnits="userSpaceOnUse">
<stop stop-color="#00FBDE"/>
<stop offset="0.625" stop-color="#00C7E1"/>
</linearGradient>
<linearGradient id="paint6_linear_49_128" x1="34.3883" y1="3.12402" x2="36.7783" y2="8.79418" gradientUnits="userSpaceOnUse">
<stop stop-color="white"/>
<stop offset="1" stop-color="white" stop-opacity="0"/>
</linearGradient>
<linearGradient id="paint7_linear_49_128" x1="20.6656" y1="3.16016" x2="20.6656" y2="11.8852" gradientUnits="userSpaceOnUse">
<stop stop-color="#00FBDE"/>
<stop offset="0.625" stop-color="#00C7E1"/>
</linearGradient>
<linearGradient id="paint8_linear_49_128" x1="18.9924" y1="3.16016" x2="21.4873" y2="8.68448" gradientUnits="userSpaceOnUse">
<stop stop-color="white"/>
<stop offset="1" stop-color="white" stop-opacity="0"/>
</linearGradient>
<linearGradient id="paint9_linear_49_128" x1="27.8729" y1="3.17773" x2="27.8729" y2="11.8293" gradientUnits="userSpaceOnUse">
<stop stop-color="#00FBDE"/>
<stop offset="0.625" stop-color="#00C7E1"/>
</linearGradient>
<linearGradient id="paint10_linear_49_128" x1="26.0749" y1="3.17773" x2="28.4166" y2="8.79692" gradientUnits="userSpaceOnUse">
<stop stop-color="white"/>
<stop offset="1" stop-color="white" stop-opacity="0"/>
</linearGradient>
<linearGradient id="paint11_linear_49_128" x1="43.3854" y1="13.3037" x2="43.3854" y2="26.0616" gradientUnits="userSpaceOnUse">
<stop stop-color="#00CBE0"/>
<stop offset="1" stop-color="#44CAFF"/>
</linearGradient>
<linearGradient id="paint12_linear_49_128" x1="43.3854" y1="13.3037" x2="43.3854" y2="26.0616" gradientUnits="userSpaceOnUse">
<stop stop-color="#00CBE0"/>
<stop offset="1" stop-color="#44CAFF"/>
</linearGradient>
<linearGradient id="paint13_linear_49_128" x1="39.1726" y1="11.2514" x2="44.1744" y2="21.1184" gradientUnits="userSpaceOnUse">
<stop stop-color="white"/>
<stop offset="1" stop-color="white" stop-opacity="0"/>
</linearGradient>
<linearGradient id="paint14_linear_49_128" x1="32.5534" y1="13.3037" x2="32.5534" y2="25.9977" gradientUnits="userSpaceOnUse">
<stop stop-color="#00CBE0"/>
<stop offset="1" stop-color="#44CAFF"/>
</linearGradient>
<linearGradient id="paint15_linear_49_128" x1="32.5534" y1="13.3037" x2="32.5534" y2="25.9977" gradientUnits="userSpaceOnUse">
<stop stop-color="#00CBE0"/>
<stop offset="1" stop-color="#44CAFF"/>
</linearGradient>
<linearGradient id="paint16_linear_49_128" x1="28.368" y1="11.2616" x2="33.3491" y2="21.0733" gradientUnits="userSpaceOnUse">
<stop stop-color="white"/>
<stop offset="1" stop-color="white" stop-opacity="0"/>
</linearGradient>
<linearGradient id="paint17_linear_49_128" x1="21.1644" y1="13.3301" x2="21.1644" y2="26.095" gradientUnits="userSpaceOnUse">
<stop stop-color="#00CBE0"/>
<stop offset="1" stop-color="#44CAFF"/>
</linearGradient>
<linearGradient id="paint18_linear_49_128" x1="21.1644" y1="13.3301" x2="21.1644" y2="26.095" gradientUnits="userSpaceOnUse">
<stop stop-color="#00CBE0"/>
<stop offset="1" stop-color="#44CAFF"/>
</linearGradient>
<linearGradient id="paint19_linear_49_128" x1="16.3277" y1="11.2766" x2="20.9147" y2="21.6596" gradientUnits="userSpaceOnUse">
<stop stop-color="white"/>
<stop offset="1" stop-color="white" stop-opacity="0"/>
</linearGradient>
<linearGradient id="paint20_linear_49_128" x1="8.54118" y1="13.3281" x2="8.54118" y2="26.0221" gradientUnits="userSpaceOnUse">
<stop stop-color="#00CBE0"/>
<stop offset="1" stop-color="#44CAFF"/>
</linearGradient>
<linearGradient id="paint21_linear_49_128" x1="3.88214" y1="11.2861" x2="8.54118" y2="21.5017" gradientUnits="userSpaceOnUse">
<stop stop-color="white"/>
<stop offset="1" stop-color="white" stop-opacity="0"/>
</linearGradient>
<linearGradient id="paint22_linear_49_128" x1="44.4806" y1="3.13477" x2="44.4806" y2="11.9018" gradientUnits="userSpaceOnUse">
<stop stop-color="#00FBDE"/>
<stop offset="0.625" stop-color="#00C7E1"/>
</linearGradient>
<linearGradient id="paint23_linear_49_128" x1="42.4892" y1="3.13477" x2="44.7139" y2="8.96956" gradientUnits="userSpaceOnUse">
<stop stop-color="white"/>
<stop offset="1" stop-color="white" stop-opacity="0"/>
</linearGradient>
</defs>
</svg>
